<svg width="304" height="528" viewBox="0 0 304 528" fill="none" xmlns="http://www.w3.org/2000/svg">
<path d="M193.887 265.968H84.9366V281.567H193.887V265.968Z" fill="#00A2B8"/>
<path d="M218.645 265.968H203.046V281.567H218.645V265.968Z" fill="#DBDBDB"/>
<path d="M207.706 273.768C207.706 273.96 207.649 274.148 207.542 274.307C207.436 274.467 207.284 274.591 207.106 274.665C206.929 274.738 206.734 274.758 206.546 274.72C206.357 274.683 206.184 274.59 206.048 274.454C205.913 274.319 205.82 274.146 205.783 273.957C205.745 273.769 205.764 273.574 205.838 273.396C205.911 273.219 206.036 273.067 206.196 272.961C206.355 272.854 206.543 272.797 206.735 272.797C206.862 272.797 206.989 272.822 207.106 272.871C207.224 272.92 207.331 272.991 207.421 273.081C207.512 273.172 207.583 273.279 207.632 273.396C207.681 273.514 207.706 273.64 207.706 273.768V273.768Z" fill="#263238"/>
<path d="M211.865 273.768C211.865 273.96 211.808 274.148 211.701 274.307C211.594 274.467 211.443 274.591 211.265 274.665C211.088 274.738 210.893 274.758 210.704 274.72C210.516 274.683 210.343 274.59 210.207 274.454C210.071 274.319 209.979 274.146 209.941 273.957C209.904 273.769 209.923 273.574 209.997 273.396C210.07 273.219 210.195 273.067 210.354 272.961C210.514 272.854 210.702 272.797 210.894 272.797C211.021 272.797 211.147 272.822 211.265 272.871C211.383 272.92 211.49 272.991 211.58 273.081C211.67 273.172 211.742 273.279 211.791 273.396C211.839 273.514 211.865 273.64 211.865 273.768V273.768Z" fill="#263238"/>
<path d="M215.91 273.768C215.91 273.96 215.853 274.148 215.746 274.307C215.64 274.467 215.488 274.591 215.31 274.665C215.133 274.738 214.938 274.758 214.75 274.72C214.561 274.683 214.388 274.59 214.252 274.454C214.117 274.319 214.024 274.146 213.987 273.957C213.949 273.769 213.968 273.574 214.042 273.396C214.115 273.219 214.24 273.067 214.4 272.961C214.559 272.854 214.747 272.797 214.939 272.797C215.066 272.797 215.193 272.822 215.31 272.871C215.428 272.92 215.535 272.991 215.625 273.081C215.716 273.172 215.787 273.279 215.836 273.396C215.885 273.514 215.91 273.64 215.91 273.768V273.768Z" fill="#263238"/>
<path d="M273.354 306.73C273.525 306.734 273.687 306.803 273.807 306.924C273.928 307.044 273.997 307.207 274.002 307.377C274.002 307.549 273.933 307.713 273.812 307.835C273.691 307.956 273.526 308.024 273.354 308.024C273.27 308.024 273.187 308.007 273.109 307.975C273.031 307.942 272.961 307.894 272.902 307.834C272.843 307.773 272.797 307.702 272.767 307.623C272.736 307.545 272.721 307.461 272.723 307.377C272.723 307.208 272.789 307.046 272.907 306.925C273.025 306.804 273.185 306.734 273.354 306.73V306.73Z" fill="black"/>
<path d="M275.28 306.73C275.45 306.734 275.612 306.803 275.733 306.924C275.854 307.044 275.923 307.207 275.927 307.377C275.927 307.549 275.859 307.713 275.738 307.835C275.616 307.956 275.452 308.024 275.28 308.024C275.196 308.024 275.112 308.007 275.035 307.975C274.957 307.942 274.887 307.894 274.828 307.834C274.769 307.773 274.723 307.702 274.692 307.623C274.661 307.545 274.647 307.461 274.649 307.377C274.649 307.208 274.715 307.046 274.833 306.925C274.951 306.804 275.111 306.734 275.28 306.73V306.73Z" fill="black"/>
<path d="M277.254 306.73C277.424 306.734 277.587 306.803 277.707 306.924C277.828 307.044 277.897 307.207 277.901 307.377C277.916 307.469 277.911 307.564 277.885 307.654C277.86 307.744 277.815 307.828 277.755 307.899C277.694 307.97 277.618 308.028 277.533 308.067C277.448 308.106 277.356 308.126 277.262 308.126C277.169 308.126 277.076 308.106 276.991 308.067C276.906 308.028 276.83 307.97 276.77 307.899C276.709 307.828 276.664 307.744 276.639 307.654C276.614 307.564 276.608 307.469 276.623 307.377C276.627 307.209 276.694 307.049 276.811 306.929C276.928 306.809 277.087 306.738 277.254 306.73V306.73Z" fill="black"/>
<path d="M27.4114 333.494L58.8359 333.203L84.8234 333.025L136.798 332.895L161.556 333.025L187.527 333.203L213.515 333.494L187.527 333.785L161.556 333.947L136.798 334.093L84.8234 333.947L58.8359 333.785L27.4114 333.494Z" fill="#263238"/>
<path d="M27.3953 338.996C42.0557 338.753 62.9946 338.64 77.736 338.543L121.734 338.397L165.747 338.543L178.078 338.996L165.747 339.465L121.734 339.594L77.736 339.465C63.0755 339.368 42.0719 339.255 27.3953 338.996Z" fill="#263238"/>
<path d="M27.3953 345.355C43.3826 345.112 66.2309 344.999 82.2506 344.902L130.213 344.756L178.158 344.902L191.605 345.355L178.158 345.824L130.213 345.97L82.2506 345.824C66.2309 345.727 43.3988 345.565 27.3953 345.355Z" fill="#263238"/>
<path d="M85.589 307.935H27.3193V314.23H85.589V307.935Z" fill="#455A64"/>
<path d="M73.8089 317.369H27.3193V321.171H73.8089V317.369Z" fill="#DBDBDB"/>
<path d="M26.2463 358.511L57.6547 358.3L89.0468 358.236L151.831 358.106L214.615 358.236L246.024 358.3L277.416 358.511L246.024 358.705L214.615 358.77L151.831 358.915L89.0468 358.77L57.6547 358.705L26.2463 358.511Z" fill="#DBDBDB"/>
<path d="M38.8841 380.323C38.8841 380.906 38.7114 381.475 38.3878 381.96C38.0642 382.444 37.6042 382.821 37.0661 383.044C36.5279 383.267 35.9358 383.325 35.3645 383.212C34.7932 383.098 34.2685 382.818 33.8566 382.406C33.4447 381.994 33.1642 381.469 33.0506 380.898C32.937 380.327 32.9953 379.734 33.2182 379.196C33.4411 378.658 33.8186 378.198 34.3029 377.875C34.7872 377.551 35.3566 377.378 35.9391 377.378C36.7188 377.383 37.4654 377.694 38.0168 378.246C38.5682 378.797 38.8799 379.544 38.8841 380.323Z" fill="white"/>
<path d="M273.354 375.08C273.526 375.08 273.691 375.149 273.812 375.27C273.933 375.391 274.002 375.556 274.002 375.728C274.002 375.812 273.985 375.895 273.952 375.973C273.919 376.051 273.871 376.121 273.811 376.18C273.751 376.239 273.679 376.285 273.601 376.315C273.522 376.346 273.439 376.361 273.354 376.359C273.271 376.361 273.188 376.346 273.11 376.315C273.033 376.284 272.962 376.238 272.903 376.179C272.844 376.12 272.798 376.049 272.767 375.972C272.736 375.894 272.721 375.811 272.723 375.728C272.721 375.643 272.736 375.56 272.767 375.481C272.797 375.403 272.843 375.331 272.902 375.271C272.961 375.211 273.031 375.163 273.109 375.13C273.187 375.097 273.27 375.08 273.354 375.08V375.08Z" fill="black"/>
<path d="M275.28 375.08C275.452 375.08 275.616 375.149 275.738 375.27C275.859 375.391 275.927 375.556 275.927 375.728C275.927 375.812 275.91 375.895 275.878 375.973C275.845 376.051 275.797 376.121 275.737 376.18C275.676 376.239 275.605 376.285 275.526 376.315C275.448 376.346 275.364 376.361 275.28 376.359C275.196 376.361 275.113 376.346 275.036 376.315C274.958 376.284 274.888 376.238 274.829 376.179C274.77 376.12 274.723 376.049 274.692 375.972C274.661 375.894 274.647 375.811 274.649 375.728C274.647 375.643 274.661 375.56 274.692 375.481C274.723 375.403 274.769 375.331 274.828 375.271C274.887 375.211 274.957 375.163 275.035 375.13C275.112 375.097 275.196 375.08 275.28 375.08V375.08Z" fill="black"/>
<path d="M277.254 375.08C277.426 375.08 277.59 375.149 277.712 375.27C277.833 375.391 277.901 375.556 277.901 375.728C277.877 375.88 277.799 376.018 277.682 376.118C277.565 376.218 277.416 376.273 277.262 376.273C277.108 376.273 276.959 376.218 276.842 376.118C276.725 376.018 276.647 375.88 276.623 375.728C276.623 375.559 276.689 375.397 276.807 375.276C276.925 375.155 277.085 375.085 277.254 375.08V375.08Z" fill="black"/>
<path d="M27.4114 401.812L58.8359 401.521L84.8234 401.359L136.798 401.214L161.556 401.359L187.527 401.521L213.515 401.812L187.527 402.12L161.556 402.282L136.798 402.427L84.8234 402.282L58.8359 402.104L27.4114 401.812Z" fill="#263238"/>
<path d="M27.3953 407.33C42.0557 407.088 62.9946 406.958 77.736 406.861L121.734 406.732L165.747 406.861L178.078 407.33L165.747 407.799L121.734 407.929L77.736 407.783C63.0755 407.686 42.0719 407.573 27.3953 407.33Z" fill="#263238"/>
<path d="M85.589 375.099H27.3193V381.394H85.589V375.099Z" fill="#455A64"/>
<path d="M73.8089 384.533H27.3193V388.336H73.8089V384.533Z" fill="#DBDBDB"/>
<path d="M26.2463 423.593L57.6547 423.399L89.0468 423.334L151.831 423.188L214.615 423.334L246.024 423.399L277.416 423.593L246.024 423.803L214.615 423.868L151.831 423.997L89.0468 423.868L57.6547 423.787L26.2463 423.593Z" fill="#DBDBDB"/>
<path d="M38.8841 447.671C38.8841 448.253 38.7114 448.823 38.3878 449.307C38.0642 449.791 37.6042 450.169 37.0661 450.392C36.5279 450.615 35.9358 450.673 35.3645 450.559C34.7932 450.446 34.2685 450.165 33.8566 449.753C33.4447 449.341 33.1642 448.817 33.0506 448.245C32.937 447.674 32.9953 447.082 33.2182 446.544C33.4411 446.006 33.8186 445.546 34.3029 445.222C34.7872 444.899 35.3566 444.726 35.9391 444.726C36.7201 444.726 37.4692 445.036 38.0215 445.588C38.5738 446.141 38.8841 446.89 38.8841 447.671V447.671Z" fill="white"/>
<path d="M41.0201 455.794V457.007C39.4949 457.964 37.7312 458.471 35.931 458.471C34.1308 458.471 32.3671 457.964 30.8419 457.007V455.794C30.9153 454.494 31.4834 453.271 32.4297 452.377C33.3761 451.482 34.6288 450.984 35.931 450.984C37.2331 450.984 38.4859 451.482 39.4323 452.377C40.3786 453.271 40.9467 454.494 41.0201 455.794V455.794Z" fill="white"/>
<path d="M273.354 442.444C273.447 442.429 273.541 442.435 273.631 442.46C273.722 442.486 273.805 442.53 273.876 442.591C273.948 442.652 274.005 442.727 274.044 442.812C274.083 442.897 274.104 442.99 274.104 443.083C274.104 443.177 274.083 443.27 274.044 443.355C274.005 443.44 273.948 443.515 273.876 443.576C273.805 443.637 273.722 443.681 273.631 443.707C273.541 443.732 273.447 443.737 273.354 443.723C273.202 443.698 273.064 443.621 272.964 443.503C272.864 443.386 272.809 443.237 272.809 443.083C272.809 442.929 272.864 442.781 272.964 442.663C273.064 442.546 273.202 442.469 273.354 442.444V442.444Z" fill="black"/>
<path d="M275.28 442.444C275.372 442.429 275.467 442.435 275.557 442.46C275.647 442.486 275.731 442.53 275.802 442.591C275.873 442.652 275.93 442.727 275.97 442.812C276.009 442.897 276.029 442.99 276.029 443.083C276.029 443.177 276.009 443.27 275.97 443.355C275.93 443.44 275.873 443.515 275.802 443.576C275.731 443.637 275.647 443.681 275.557 443.707C275.467 443.732 275.372 443.737 275.28 443.723C275.128 443.698 274.989 443.621 274.889 443.503C274.789 443.386 274.735 443.237 274.735 443.083C274.735 442.929 274.789 442.781 274.889 442.663C274.989 442.546 275.128 442.469 275.28 442.444V442.444Z" fill="black"/>
<path d="M277.254 442.444C277.346 442.429 277.441 442.435 277.531 442.46C277.621 442.486 277.705 442.53 277.776 442.591C277.847 442.652 277.904 442.727 277.944 442.812C277.983 442.897 278.003 442.99 278.003 443.083C278.003 443.177 277.983 443.27 277.944 443.355C277.904 443.44 277.847 443.515 277.776 443.576C277.705 443.637 277.621 443.681 277.531 443.707C277.441 443.732 277.346 443.737 277.254 443.723C277.102 443.698 276.963 443.621 276.864 443.503C276.764 443.386 276.709 443.237 276.709 443.083C276.709 442.929 276.764 442.781 276.864 442.663C276.963 442.546 277.102 442.469 277.254 442.444V442.444Z" fill="black"/>
<path d="M84.613 469.176L106.377 468.885L124.387 468.723L160.375 468.577L177.527 468.707L195.521 468.885L213.515 469.176L195.521 469.467L177.527 469.645L160.375 469.775L124.387 469.645L106.377 469.467L84.613 469.176Z" fill="#263238"/>
<path d="M84.613 474.678C94.775 474.435 109.322 474.322 119.484 474.225L149.954 474.079L180.44 474.225L188.984 474.678L180.44 475.147L149.954 475.293L119.484 475.147C109.322 475.018 94.775 475.018 84.613 474.678Z" fill="#263238"/>
<path d="M84.4107 439.514H26.141V445.809H84.4107V439.514Z" fill="#455A64"/>
<path d="M72.6305 448.964H26.141V452.767H72.6305V448.964Z" fill="#DBDBDB"/>
<path d="M26.2463 507.348H76.7164V468.577H26.2463L26.2463 507.348Z" fill="#00A2B8"/>
<path opacity="0.2" d="M31.6834 477.671C31.4975 478.618 31.6211 479.6 32.0358 480.471C32.4505 481.342 33.1345 482.057 33.9866 482.51C34.8387 482.963 35.8139 483.13 36.7681 482.986C37.7223 482.842 38.605 482.395 39.2858 481.711C39.9665 481.027 40.4094 480.143 40.5488 479.188C40.6883 478.233 40.517 477.259 40.0603 476.409C39.6035 475.559 38.8855 474.878 38.0123 474.467C37.1391 474.056 36.157 473.937 35.2109 474.128C34.3383 474.303 33.5374 474.733 32.9094 475.364C32.2815 475.995 31.8548 476.798 31.6834 477.671V477.671Z" fill="black"/>
<path opacity="0.2" d="M40.2433 499.16H76.7164L58.4799 478.723L40.2433 499.16Z" fill="black"/>
<path d="M26.2463 499.177H56.3601L41.3114 485.859L26.2463 499.177Z" fill="#00A2B8"/>
<path opacity="0.3" d="M26.2463 499.177H56.3601L41.3114 485.859L26.2463 499.177Z" fill="black"/>
<path d="M76.7327 499.16H26.2626V507.348H76.7327V499.16Z" fill="#00A2B8"/>
<path opacity="0.3" d="M76.7327 499.16H26.2626V507.348H76.7327V499.16Z" fill="black"/>
<circle cx="143.188" cy="155.539" r="77.3765" fill="#D9D9D9"/>
<mask id="mask0_406_2217" style="mask-type:alpha" maskUnits="userSpaceOnUse" x="23" y="0" width="236" height="235">
<circle cx="141.027" cy="117.243" r="117.243" fill="#D9D9D9"/>
</mask>
<g mask="url(#mask0_406_2217)">
<path d="M219.161 234.486C218.41 228.766 215.212 206.348 210.497 196.048C208.232 191.036 204.928 186.562 200.805 182.923C196.681 179.284 191.832 176.561 186.578 174.936C177.944 172.324 166.683 170.116 161.052 170.912C161.052 170.912 142.358 177.354 134.325 179.155C126.292 180.957 117.958 186.588 114.535 191.423C111.532 195.717 95.796 227.534 92.3876 234.486H219.161Z" fill="white" stroke="#263238" stroke-linecap="round" stroke-linejoin="round"/>
<path d="M219.161 234.486C218.41 228.766 215.212 206.348 210.497 196.048C208.232 191.036 204.928 186.562 200.805 182.923C196.681 179.284 191.832 176.561 186.578 174.936C177.944 172.324 166.683 170.116 161.052 170.912C161.052 170.912 148.244 175.327 139.265 177.864C136.457 182.249 130.151 191.978 124.25 200.267C116.742 210.777 113.739 225.973 117.808 234.486H219.161Z" fill="#00A2B8" stroke="#263238" stroke-linecap="round" stroke-linejoin="round"/>
<path d="M148.995 159.26C150.832 166.275 151.511 173.543 151.007 180.777C150.196 193.044 143.77 200.882 146.187 207.114C148.605 213.345 158.199 215.747 166.683 209.126C175.166 202.504 176.728 186.212 176.938 178.975C177.148 171.738 180.557 149.245 180.557 149.245C180.557 149.245 171.548 159.891 161.037 160.296C150.526 160.702 148.995 159.26 148.995 159.26Z" fill="white" stroke="#263238" stroke-linecap="round" stroke-linejoin="round"/>
<path d="M151.202 101.782C151.202 101.782 137.688 104.184 131.517 116.046C125.511 127.413 128.364 146.527 134.295 157.849C141.802 172.143 141.352 177.038 141.427 189.666C141.499 190.519 141.395 191.378 141.121 192.189C140.847 193 140.41 193.746 139.835 194.381C136.742 197.384 136.337 192.879 135.526 195.432C134.715 197.984 143.034 203.63 151.607 196.167C157.163 191.318 158.439 177.759 155.827 169.906C153.214 162.053 140.151 145.791 142.974 133.134C145.797 120.476 155.631 110.025 156.487 105.19C157.343 100.356 151.202 101.782 151.202 101.782Z" fill="#263238"/>
<path d="M151.773 109.139C151.773 109.139 128.409 123.149 132.058 144.831C135.706 166.512 159.085 172.849 156.878 195.191" stroke="#636363" stroke-linecap="round" stroke-linejoin="round"/>
<path d="M151.202 101.782C151.202 101.782 137.688 104.184 131.517 116.046C125.511 127.413 128.364 146.527 134.295 157.849C141.802 172.143 141.352 177.038 141.427 189.666C141.499 190.519 141.395 191.378 141.121 192.189C140.847 193 140.41 193.746 139.835 194.381C136.742 197.384 136.337 192.879 135.526 195.432C134.715 197.984 143.034 203.63 151.607 196.167C157.163 191.318 158.439 177.759 155.827 169.906C153.214 162.053 140.151 145.791 142.974 133.134C145.797 120.476 155.631 110.025 156.487 105.19C157.343 100.356 151.202 101.782 151.202 101.782Z" stroke="#263238" stroke-linecap="round" stroke-linejoin="round"/>
<path d="M188.62 234.486H219.161V234.201V233.976V233.645V233.33V233.195V232.895V232.805V232.414V232.009V231.904V231.543V231.378C219.168 231.243 219.168 231.108 219.161 230.973V230.868C219.161 230.717 219.161 230.567 219.161 230.417V230.312C219.161 230.162 219.161 230.027 219.161 229.892V229.696C219.161 229.561 219.161 229.426 219.161 229.276V229.126L219.071 228.585L218.981 228.045V227.925L218.891 227.339C218.891 227.114 218.815 226.889 218.785 226.663C218.68 225.973 218.56 225.252 218.44 224.516C218.44 224.291 218.44 224.066 218.32 223.84V223.765C218.32 223.54 218.245 223.315 218.2 223.09V222.985C218.2 222.774 218.125 222.564 218.08 222.339V222.174C218.08 221.979 218.08 221.783 217.975 221.588V221.348L217.885 220.822V220.552L217.794 220.042V219.786C217.794 219.606 217.719 219.426 217.689 219.246V218.991C217.689 218.81 217.614 218.63 217.584 218.45V218.18C217.584 218 217.584 217.834 217.479 217.654V217.384C217.479 217.204 217.479 217.024 217.374 216.843V216.558C217.374 216.393 217.299 216.213 217.269 216.033V215.747C217.269 215.567 217.194 215.402 217.149 215.222V214.936C217.149 214.756 217.149 214.576 217.029 214.396C217.036 214.306 217.036 214.216 217.029 214.126C217.029 213.945 216.954 213.75 216.924 213.57V213.3L215.332 212.309V212.084C215.332 211.873 215.242 211.648 215.182 211.423V211.273L215.002 210.492C214.881 209.951 214.746 209.411 214.611 208.87V208.75C214.611 208.525 214.506 208.3 214.461 208.075V207.834L214.326 207.294C214.296 207.2 214.271 207.105 214.251 207.008L214.116 206.498C214.116 206.408 214.116 206.303 214.041 206.213C213.966 206.123 213.966 205.897 213.92 205.732L213.83 205.417C213.83 205.267 213.755 205.117 213.71 204.966L213.62 204.651L213.5 204.216L213.41 203.885C213.41 203.75 213.335 203.615 213.29 203.465L213.2 203.15C213.153 203.017 213.113 202.881 213.08 202.744C213.08 202.624 213.005 202.519 212.975 202.414C212.944 202.309 212.975 202.144 212.854 202.023C212.734 201.903 212.854 201.813 212.749 201.693C212.716 201.566 212.676 201.441 212.629 201.318C212.601 201.21 212.566 201.105 212.524 201.002C212.491 200.87 212.451 200.74 212.404 200.612C212.404 200.522 212.404 200.417 212.299 200.312C212.194 200.207 212.224 200.056 212.179 199.936C212.134 199.816 212.104 199.741 212.074 199.636L211.938 199.276C211.91 199.178 211.875 199.083 211.833 198.99C211.8 198.868 211.76 198.748 211.713 198.63C211.672 198.543 211.637 198.452 211.608 198.36L211.473 197.999C211.473 197.909 211.473 197.819 211.368 197.744L211.218 197.384L211.128 197.143C211.128 197.008 211.023 196.888 210.962 196.768C210.931 196.701 210.906 196.63 210.887 196.558L210.632 196.017C208.468 191.28 205.378 187.023 201.543 183.498C197.709 179.973 193.207 177.25 188.305 175.492C186.968 180.161 183.605 193.225 184.416 204.02C185.136 214.291 187.509 228.285 188.62 234.486Z" fill="white" stroke="#263238" stroke-linecap="round" stroke-linejoin="round"/>
<path d="M153.019 102.578C153.019 102.578 145.376 108.404 142.974 114.845C140.571 121.287 138.544 137.548 138.95 143.99C139.355 150.431 147.583 161.678 150.962 164.485C154.34 167.293 168.98 164.08 175.887 157.654C180.662 153.149 184.731 137.758 181.518 122.683C178.304 107.608 162.869 98.9592 153.019 102.578Z" fill="white" stroke="#263238" stroke-linecap="round" stroke-linejoin="round"/>
<path d="M159.656 131.933C159.656 131.933 164.07 127.308 171.503 131.122" stroke="#263238" stroke-linecap="round" stroke-linejoin="round"/>
<path d="M148.8 129.32C148.456 127.889 147.734 126.576 146.709 125.519C145.684 124.463 144.394 123.701 142.974 123.314" stroke="#263238" stroke-linecap="round" stroke-linejoin="round"/>
<path d="M152.418 127.308C152.418 127.308 152.013 131.122 150.602 132.533C149.19 133.945 146.187 135.341 147.388 138.164C148.589 140.987 152.208 141.572 153.815 139.966" stroke="#263238" stroke-linecap="round" stroke-linejoin="round"/>
<path d="M143.364 119.47C143.364 119.47 146.788 115.251 152.373 119.47" stroke="#263238" stroke-linecap="round" stroke-linejoin="round"/>
<path d="M158.65 121.482C158.65 121.482 165.271 117.458 170.497 124.89" stroke="#263238" stroke-linecap="round" stroke-linejoin="round"/>
<path d="M146.983 144.59C146.983 144.59 149.806 148.404 157.493 147.398C165.181 146.392 166.938 143.179 166.938 143.179" stroke="#263238" stroke-linecap="round" stroke-linejoin="round"/>
<path d="M165.271 131.828C165.271 132.205 165.159 132.573 164.95 132.887C164.74 133.201 164.442 133.445 164.094 133.589C163.746 133.734 163.362 133.771 162.992 133.698C162.622 133.624 162.282 133.443 162.016 133.176C161.749 132.909 161.567 132.569 161.494 132.2C161.42 131.83 161.458 131.446 161.602 131.098C161.747 130.749 161.991 130.452 162.305 130.242C162.618 130.032 162.987 129.921 163.364 129.921C163.87 129.921 164.355 130.122 164.713 130.479C165.07 130.837 165.271 131.322 165.271 131.828V131.828Z" fill="#263238"/>
<path d="M147.583 127.398C147.583 127.775 147.472 128.144 147.262 128.457C147.052 128.771 146.755 129.015 146.406 129.16C146.058 129.304 145.674 129.342 145.304 129.268C144.935 129.195 144.595 129.013 144.328 128.746C144.061 128.48 143.88 128.14 143.806 127.77C143.733 127.4 143.77 127.017 143.915 126.668C144.059 126.32 144.303 126.022 144.617 125.812C144.931 125.603 145.299 125.491 145.676 125.491C146.182 125.491 146.667 125.692 147.025 126.049C147.382 126.407 147.583 126.892 147.583 127.398V127.398Z" fill="#263238"/>
<path d="M151.412 147.203C151.412 147.203 154.626 153.84 160.256 153.209C165.887 152.578 165.481 144.74 165.481 144.74C161.239 147.222 156.246 148.096 151.412 147.203Z" fill="#263238" stroke="#263238" stroke-linecap="round" stroke-linejoin="round"/>
<path d="M169.686 85.3104H169.235C162.028 86.1362 152.568 87.6528 146.788 92.2925C139.745 97.9081 142.163 99.3196 148.589 102.533C155.016 105.746 174.115 116.407 175.932 131.677C177.749 146.948 171.503 170.867 168.5 181.723C165.497 192.579 169.491 200.011 175.331 205.237C176.647 206.459 178.211 207.384 179.915 207.948C181.62 208.513 183.426 208.705 185.211 208.51C188.485 208.18 192.599 207.309 195.197 205.177C195.482 204.951 198.77 201.483 198.2 201.017C195.317 198.57 191.848 202.084 190.091 198.72C186.503 191.813 192.073 183.54 195.842 177.864C198.92 173.224 204.04 170.356 207.164 165.852C210.202 160.992 212.044 155.481 212.539 149.771C213.966 137.548 211.668 124.59 207.374 113.134C201.803 98.2685 190.272 85.0551 173.289 85.1002C172.118 85.1152 170.887 85.1753 169.686 85.3104Z" fill="#263238"/>
<path d="M137.869 91.6168C137.869 91.6168 158.89 93.8842 172.283 112.068C185.677 130.251 189.491 142.593 189.161 159.47C188.83 176.348 202.479 184.155 212.539 179.276" stroke="#636363" stroke-linecap="round" stroke-linejoin="round"/>
<path d="M156.367 86.4216C156.367 86.4216 183.65 91.6168 192.404 118.884C201.158 146.152 197.614 162.759 209.326 164.996" stroke="#636363" stroke-linecap="round" stroke-linejoin="round"/>
<path d="M170.001 137.398C170.001 137.398 180.076 161.753 177.509 184.801C174.941 207.849 185.016 212.084 201.218 207.849" stroke="#636363" stroke-linecap="round" stroke-linejoin="round"/>
<path d="M169.686 85.3104H169.235C162.028 86.1362 152.568 87.6528 146.788 92.2925C139.745 97.9081 142.163 99.3196 148.589 102.533C155.016 105.746 174.115 116.407 175.932 131.677C177.749 146.948 171.503 170.867 168.5 181.723C165.497 192.579 169.491 200.011 175.331 205.237C176.647 206.459 178.211 207.384 179.915 207.948C181.62 208.513 183.426 208.705 185.211 208.51C188.485 208.18 192.599 207.309 195.197 205.177C195.482 204.951 198.77 201.483 198.2 201.017C195.317 198.57 191.848 202.084 190.091 198.72C186.503 191.813 192.073 183.54 195.842 177.864C198.92 173.224 204.04 170.356 207.164 165.852C210.202 160.992 212.044 155.481 212.539 149.771C213.966 137.548 211.668 124.59 207.374 113.134C201.803 98.2685 190.272 85.0551 173.289 85.1002C172.118 85.1152 170.887 85.1753 169.686 85.3104Z" stroke="#263238" stroke-linecap="round" stroke-linejoin="round"/>
<path d="M71.8166 197.654C73.4371 199.122 75.3588 200.219 77.4473 200.867C77.4473 200.867 80.6606 210.717 80.4504 218.555C80.4329 223.885 80.8042 229.21 81.5615 234.486H106.186C101.673 226.706 97.8353 218.553 94.7148 210.117C90.9009 198.66 92.5076 192.218 89.8949 184.786C87.2823 177.353 86.066 173.735 81.6516 167.909C77.2371 162.083 73.213 163.885 73.213 165.897C73.213 167.909 75.6155 168.705 77.4323 171.528C78.6739 173.618 79.681 175.838 80.4353 178.149C80.4353 178.149 71.9818 181.978 69.5793 186.197C67.1769 190.417 69.204 195.237 71.8166 197.654Z" fill="white" stroke="#263238" stroke-linecap="round" stroke-linejoin="round"/>
<path d="M65.9908 182.984C65.9908 182.984 62.7776 185.987 62.7776 188.99C62.7776 191.993 65.18 196.228 66.3963 196.228C67.6125 196.228 68.1981 194.02 67.5975 191.813C66.9969 189.606 65.9908 182.984 65.9908 182.984Z" fill="white" stroke="#263238" stroke-linecap="round" stroke-linejoin="round"/>
<path d="M69.8047 178.75C69.8047 178.75 65.9909 181.167 64.9849 184.185C64.6509 185.497 64.622 186.868 64.9006 188.193C65.1791 189.518 65.7575 190.762 66.5915 191.828C67.7927 193.63 71.4114 194.035 72.4174 193.029C73.4234 192.023 72.6126 189.816 72.4174 188.525C72.2222 187.233 70.2101 183.3 70.4053 181.498C70.524 180.561 70.5942 179.619 70.6156 178.675L69.8047 178.75Z" fill="white" stroke="#263238" stroke-linecap="round" stroke-linejoin="round"/>
<path d="M80.4655 178.149C80.4655 178.149 75.2252 174.936 71.2162 177.143C67.2071 179.351 67.3873 183.78 68.7987 186.993C70.2102 190.207 73.8288 192.023 75.4354 190.612C77.0421 189.2 75.2252 186.993 75.6306 183.99C76.0361 180.987 80.4655 178.149 80.4655 178.149Z" fill="white" stroke="#263238" stroke-linecap="round" stroke-linejoin="round"/>
<path d="M85.6908 183.78C85.6908 183.78 81.4565 178.149 77.6427 178.555C73.8288 178.96 67.5975 186.062 68.7987 187.804C69.9999 189.546 77.1922 186.783 77.1922 186.783C77.1922 186.783 75.1802 193.42 80.1952 194.816" fill="white"/>
<path d="M85.6908 183.78C85.6908 183.78 81.4565 178.149 77.6427 178.555C73.8288 178.96 67.5975 186.062 68.7987 187.804C69.9999 189.546 77.1922 186.783 77.1922 186.783C77.1922 186.783 75.1802 193.42 80.1952 194.816" stroke="#263238" stroke-linecap="round" stroke-linejoin="round"/>
</g>
</svg>
