<svg xmlns="http://www.w3.org/2000/svg" version="1.1" xmlns:xlink="http://www.w3.org/1999/xlink" xmlns:svgjs="http://svgjs.com/svgjs" width="512" height="512" x="0" y="0" viewBox="0 0 32 32" style="enable-background:new 0 0 512 512" xml:space="preserve" class=""><g><path d="M11.9 15.67c1.15.84 2.57 1.33 4.1 1.33 3.742 0 7-3.239 7-7 0-3.86-3.14-7-7-7s-7 3.14-7 7c0 2.33 1.14 4.4 2.9 5.67z" fill="#878383" data-original="#000000" class=""></path><path d="M22.16 16.55C20.55 18.07 18.38 19 16 19s-4.55-.93-6.16-2.45C5.77 18.75 3 23.06 3 28c0 .55.45 1 1 1h24c.55 0 1-.45 1-1 0-4.94-2.77-9.25-6.84-11.45z" fill="#878383" data-original="#000000" class=""></path></g></svg>