<svg width="512" height="512" viewBox="0 0 512 512" fill="none" xmlns="http://www.w3.org/2000/svg">
<path fill-rule="evenodd" clip-rule="evenodd" d="M339.192 273.84C339.264 271.944 338.008 270.264 336.168 269.8C334.336 269.336 332.432 270.224 331.6 271.928C318.296 299.232 291.736 321.896 271.472 332.032C269.784 332.88 268.92 334.784 269.392 336.608C269.856 338.432 271.536 339.68 273.424 339.608C282.744 339.24 295.024 339.872 309.4 343.224C311.544 343.72 313.688 342.392 314.2 340.248C318.328 322.8 330.272 316.768 339.792 314.624C340.824 314.392 341.728 313.752 342.296 312.848C342.864 311.944 343.048 310.848 342.8 309.816C339.456 295.44 338.824 283.168 339.192 273.84Z" fill="#00A2B8"/>
<path fill-rule="evenodd" clip-rule="evenodd" d="M147.456 121.56C140.144 125.008 126.224 137.216 118.584 150.44C111.16 163.296 107.248 178.096 107.232 188.176C107.232 190.384 109.016 192.184 111.224 192.184C113.432 192.184 115.232 190.4 115.232 188.192C115.248 179.16 118.864 165.952 125.512 154.44C132.256 142.76 144.408 131.84 150.864 128.8C152.864 127.856 153.72 125.472 152.776 123.48C151.84 121.48 149.456 120.624 147.456 121.56Z" fill="#B3C3C5"/>
<path fill-rule="evenodd" clip-rule="evenodd" d="M119.4 119.816C166.232 72.984 242.272 72.984 289.104 119.816C335.936 166.648 335.936 242.688 289.104 289.52C242.272 336.352 166.232 336.352 119.4 289.52C81.0079 251.128 74.0879 193.112 98.6399 147.64C99.6879 145.704 98.9599 143.272 97.0159 142.224C95.0799 141.176 92.6479 141.896 91.5999 143.84C65.4079 192.336 72.7919 254.224 113.744 295.176C163.696 345.128 244.808 345.128 294.76 295.176C344.712 245.224 344.712 164.112 294.76 114.16C244.808 64.208 163.696 64.208 113.744 114.16C112.184 115.72 112.184 118.256 113.744 119.816C115.304 121.376 117.84 121.376 119.4 119.816Z" fill="#B3C3C5"/>
<path fill-rule="evenodd" clip-rule="evenodd" d="M343.648 240.8C337.44 264.872 324.912 287.656 306.072 306.488C249.88 362.688 158.624 362.688 102.432 306.488C46.232 250.296 46.232 159.04 102.432 102.848C158.624 46.648 249.88 46.648 306.072 102.848C335.136 131.904 349.168 170.336 348.176 208.448C348.112 210.656 349.864 212.496 352.064 212.552C354.272 212.608 356.112 210.864 356.168 208.656C357.216 168.424 342.408 127.864 311.728 97.184C252.408 37.864 156.088 37.864 96.768 97.184C37.448 156.504 37.448 252.832 96.768 312.152C156.088 371.472 252.408 371.472 311.728 312.152C331.616 292.264 344.84 268.216 351.392 242.8C351.944 240.656 350.656 238.48 348.52 237.928C346.376 237.376 344.2 238.664 343.648 240.8Z" fill="#B3C3C5"/>
<path fill-rule="evenodd" clip-rule="evenodd" d="M483.616 438.776C483.392 439.56 482.8 441.456 481.992 442.968C478.896 448.76 472.56 456.792 464.464 464.88C456.376 472.976 448.344 479.312 442.552 482.408C441.04 483.216 439.144 483.808 438.36 484.032L343.28 388.952C341.72 387.392 339.184 387.392 337.624 388.952C336.064 390.512 336.064 393.048 337.624 394.608L433.352 490.336C435.032 492.024 438.456 492.84 443.112 490.984C449.464 488.44 459.8 480.864 470.12 470.544C480.448 460.216 488.024 449.88 490.56 443.528C492.424 438.872 491.6 435.448 489.92 433.768L373.96 317.808C358.336 302.184 333.008 302.184 317.392 317.808C301.768 333.424 301.768 358.752 317.392 374.376C318.952 375.936 321.488 375.936 323.048 374.376C324.608 372.816 324.608 370.28 323.048 368.72C310.552 356.216 310.552 335.96 323.048 323.464C335.544 310.968 355.8 310.968 368.304 323.464L483.616 438.776Z" fill="#B3C3C5"/>
<path fill-rule="evenodd" clip-rule="evenodd" d="M185.544 179.48C185.36 171.856 188.216 166.288 192.64 163.024C199.584 157.904 209.952 158.12 215.584 164.464C218.008 167.192 219.408 171.048 219.448 175.928C219.544 187.632 214.056 194.472 208.68 201.552C201.448 211.096 194.224 220.904 193.328 237.28C193.088 241.696 196.472 245.464 200.88 245.704C205.296 245.944 209.064 242.56 209.304 238.152C209.984 225.712 215.936 218.464 221.432 211.216C228.792 201.512 235.576 191.832 235.448 175.8C235.368 166.376 232.224 159.104 227.552 153.84C216.632 141.552 196.592 140.224 183.144 150.144C175.08 156.096 169.216 165.952 169.544 179.856C169.648 184.272 173.32 187.768 177.736 187.664C182.144 187.56 185.648 183.896 185.544 179.48Z" fill="#00A2B8"/>
<path d="M200.576 275.416C206.01 275.416 210.416 271.01 210.416 265.576C210.416 260.142 206.01 255.736 200.576 255.736C195.141 255.736 190.736 260.142 190.736 265.576C190.736 271.01 195.141 275.416 200.576 275.416Z" fill="#00A2B8"/>
<path fill-rule="evenodd" clip-rule="evenodd" d="M346.304 67.976L370.304 27.976C372.576 24.192 371.352 19.272 367.56 17C363.776 14.736 358.856 15.96 356.584 19.744L332.584 59.744C330.312 63.536 331.544 68.456 335.328 70.72C339.12 72.992 344.032 71.768 346.304 67.976Z" fill="#00A2B8"/>
<path fill-rule="evenodd" clip-rule="evenodd" d="M384.152 94.336L472.152 30.336C475.72 27.736 476.512 22.728 473.92 19.16C471.32 15.584 466.312 14.8 462.744 17.392L374.744 81.392C371.168 83.992 370.384 89 372.976 92.568C375.576 96.144 380.584 96.928 384.152 94.336Z" fill="#00A2B8"/>
<path fill-rule="evenodd" clip-rule="evenodd" d="M397.384 143.624L461.384 127.624C465.672 126.552 468.28 122.208 467.208 117.92C466.136 113.64 461.792 111.032 457.504 112.104L393.504 128.104C389.224 129.176 386.616 133.52 387.688 137.808C388.76 142.088 393.104 144.696 397.384 143.624Z" fill="#00A2B8"/>
</svg>
