<svg width="512" height="512" viewBox="0 0 512 512" fill="none" xmlns="http://www.w3.org/2000/svg">
<path fill-rule="evenodd" clip-rule="evenodd" d="M222.52 165.144C228.944 162.592 236.256 160.832 244.368 160.016C246.568 159.8 248.168 157.84 247.952 155.64C247.728 153.448 245.768 151.84 243.576 152.056C234.656 152.952 226.624 154.904 219.568 157.712C217.512 158.52 216.512 160.848 217.328 162.904C218.144 164.952 220.472 165.96 222.52 165.144Z" fill="#B3C3C5"/>
<path fill-rule="evenodd" clip-rule="evenodd" d="M263.968 159.864C273.424 160.576 282.08 160.728 289.984 160.392C292.192 160.304 293.912 158.44 293.816 156.232C293.728 154.024 291.856 152.312 289.656 152.4C282.032 152.72 273.688 152.568 264.568 151.88C262.368 151.72 260.448 153.368 260.28 155.568C260.112 157.776 261.768 159.696 263.968 159.864Z" fill="#B3C3C5"/>
<path fill-rule="evenodd" clip-rule="evenodd" d="M311.584 158.024C320.912 156.272 328.824 153.68 335.472 150.488C337.464 149.528 338.304 147.136 337.344 145.152C336.392 143.16 334 142.32 332.008 143.272C325.912 146.2 318.656 148.56 310.104 150.168C307.936 150.576 306.504 152.664 306.912 154.84C307.32 157.008 309.416 158.432 311.584 158.024Z" fill="#B3C3C5"/>
<path fill-rule="evenodd" clip-rule="evenodd" d="M351.776 139.376C358.944 132.456 363.152 124.488 365.048 116.384C365.552 114.232 364.208 112.08 362.064 111.576C359.912 111.072 357.76 112.416 357.256 114.56C355.688 121.288 352.168 127.88 346.224 133.616C344.632 135.152 344.584 137.688 346.12 139.272C347.656 140.864 350.184 140.912 351.776 139.376Z" fill="#B3C3C5"/>
<path fill-rule="evenodd" clip-rule="evenodd" d="M363.144 88.84C359.968 80.408 354.584 73.248 348.024 68.72C346.208 67.472 343.72 67.928 342.464 69.744C341.208 71.56 341.664 74.056 343.488 75.312C348.792 78.968 353.088 84.824 355.656 91.656C356.432 93.72 358.736 94.768 360.808 93.992C362.872 93.216 363.92 90.904 363.144 88.84Z" fill="#B3C3C5"/>
<path fill-rule="evenodd" clip-rule="evenodd" d="M258.92 68.704C263.312 48.096 280.816 38.072 293.44 38C297.584 37.976 301.176 38.952 303.04 41.448C304.144 42.928 304.48 44.912 304.056 47.344C303.68 49.52 305.144 51.592 307.32 51.968C309.496 52.344 311.568 50.88 311.944 48.704C312.808 43.704 311.72 39.696 309.448 36.664C306.272 32.4 300.448 29.96 293.4 30C278.032 30.088 256.44 41.952 251.096 67.04C250.632 69.2 252.008 71.32 254.168 71.784C256.328 72.248 258.456 70.864 258.92 68.704Z" fill="#B3C3C5"/>
<path fill-rule="evenodd" clip-rule="evenodd" d="M251.128 68.72C256.544 93.68 278.056 105.488 293.384 105.584C300.976 105.624 307.128 102.8 310.136 97.912C311.952 94.968 312.744 91.216 311.896 86.632C310.856 80.992 307.144 73.768 299.376 65.192C297.896 63.552 295.36 63.424 293.728 64.904C292.088 66.392 291.96 68.92 293.448 70.56C298.856 76.536 302.064 81.632 303.472 85.912C304.536 89.176 304.512 91.792 303.328 93.72C302.256 95.456 300.336 96.504 298.024 97.08C295.12 97.8 291.64 97.744 287.968 96.968C276.232 94.488 262.776 84.672 258.952 67.024C258.48 64.864 256.352 63.496 254.192 63.96C252.032 64.432 250.664 66.56 251.128 68.72Z" fill="#B3C3C5"/>
<path fill-rule="evenodd" clip-rule="evenodd" d="M253.952 75.872H307.512C311.928 75.872 315.512 72.288 315.512 67.872C315.512 63.456 311.928 59.872 307.512 59.872H253.952C249.536 59.872 245.952 63.456 245.952 67.872C245.952 72.288 249.536 75.872 253.952 75.872Z" fill="#00A2B8"/>
<path fill-rule="evenodd" clip-rule="evenodd" d="M92 388.16V433.032C92 441.864 97.792 449.648 106.256 452.184C138.4 461.832 228.816 488.96 250.256 495.384C254 496.512 258 496.512 261.744 495.384C283.184 488.96 373.6 461.832 405.744 452.184C414.208 449.648 420 441.864 420 433.032C420 411.672 420 369.056 420 369.056C420 366.848 418.208 365.056 416 365.056C413.792 365.056 412 366.848 412 369.056V433.032C412 438.328 408.52 443 403.448 444.528C371.304 454.168 280.88 481.296 259.448 487.728C257.2 488.4 254.8 488.4 252.552 487.728L108.552 444.528C103.48 443 100 438.328 100 433.032V388.16C100 385.952 98.208 384.16 96 384.16C93.792 384.16 92 385.952 92 388.16Z" fill="#B3C3C5"/>
<path fill-rule="evenodd" clip-rule="evenodd" d="M82.688 297.52C82.688 297.52 62.432 327.552 52.08 342.896C49.976 346.016 49.456 349.952 50.688 353.512C51.912 357.072 54.736 359.856 58.32 361.016L202.28 407.792C207.368 409.44 212.928 407.536 215.928 403.112C226.656 387.272 259.312 339.096 259.312 339.096C260.016 338.056 260.192 336.744 259.784 335.552C259.376 334.36 258.432 333.432 257.232 333.048L97.232 281.128C95.136 280.448 92.88 281.6 92.192 283.704C91.512 285.8 92.664 288.056 94.768 288.744L249.704 339.016L209.304 398.624C208.304 400.096 206.448 400.736 204.752 400.184L60.792 353.408C59.6 353.016 58.656 352.096 58.248 350.904C57.84 349.72 58.016 348.408 58.712 347.368L89.32 301.992C90.56 300.16 90.072 297.672 88.24 296.44C86.416 295.2 83.928 295.688 82.688 297.52Z" fill="#B3C3C5"/>
<path fill-rule="evenodd" clip-rule="evenodd" d="M392.008 288.512L254.768 333.048C252.664 333.728 251.512 335.984 252.192 338.088C252.88 340.184 255.136 341.336 257.232 340.656L394.472 296.128C396.576 295.448 397.728 293.184 397.048 291.088C396.36 288.984 394.104 287.832 392.008 288.512Z" fill="#B3C3C5"/>
<path fill-rule="evenodd" clip-rule="evenodd" d="M264.016 355.808C264.016 355.808 287.224 390.048 296.072 403.112C299.072 407.536 304.632 409.44 309.72 407.792C333.312 400.128 423.288 370.888 453.68 361.016C457.264 359.856 460.088 357.072 461.312 353.512C462.544 349.952 462.024 346.016 459.92 342.896C447.376 324.296 419.32 282.696 419.32 282.696C418.08 280.872 415.592 280.384 413.76 281.616C411.936 282.856 411.448 285.344 412.68 287.176C412.68 287.176 440.744 328.768 453.288 347.368C453.984 348.408 454.16 349.72 453.752 350.904C453.344 352.096 452.4 353.016 451.208 353.408L307.248 400.184C305.552 400.736 303.696 400.096 302.696 398.624L270.64 351.32C269.4 349.488 266.912 349.016 265.08 350.256C263.256 351.488 262.776 353.984 264.016 355.808Z" fill="#B3C3C5"/>
<path fill-rule="evenodd" clip-rule="evenodd" d="M121.536 280.832L257.24 236.656C258.432 236.264 259.376 235.336 259.784 234.144C260.192 232.952 260.016 231.64 259.304 230.6C259.304 230.6 230.568 188.336 220.576 173.64C217.576 169.232 212.024 167.328 206.944 168.976L62.9759 215.752C59.3919 216.92 56.5679 219.696 55.3359 223.264C54.1119 226.824 54.6319 230.752 56.7359 233.88C68.2879 251.008 92.6799 287.176 92.6799 287.176C93.9199 289 96.4079 289.488 98.2399 288.248C100.064 287.016 100.552 284.528 99.3199 282.696C99.3199 282.696 74.9199 246.536 63.3679 229.408C62.6639 228.36 62.4959 227.056 62.9039 225.864C63.3119 224.68 64.2559 223.752 65.4479 223.36L209.416 176.584C211.112 176.032 212.96 176.672 213.96 178.136L249.696 230.696L119.064 273.224C116.96 273.904 115.816 276.168 116.496 278.264C117.184 280.36 119.44 281.512 121.536 280.832Z" fill="#B3C3C5"/>
<path fill-rule="evenodd" clip-rule="evenodd" d="M254.76 236.656L414.76 288.736C416.456 289.288 418.32 288.656 419.32 287.176C419.32 287.176 443.712 251.008 455.264 233.88C457.368 230.752 457.888 226.824 456.664 223.264C455.432 219.696 452.608 216.92 449.024 215.752L305.056 168.976C299.976 167.328 294.424 169.232 291.424 173.64L263.44 214.792C262.2 216.624 262.672 219.112 264.496 220.352C266.328 221.592 268.816 221.12 270.056 219.296L298.04 178.136C299.04 176.672 300.888 176.032 302.584 176.584L446.552 223.36C447.744 223.752 448.688 224.68 449.096 225.864C449.504 227.056 449.336 228.36 448.632 229.408L414.368 280.2L257.24 229.048C255.136 228.36 252.88 229.512 252.2 231.616C251.512 233.712 252.664 235.968 254.76 236.656Z" fill="#B3C3C5"/>
<path fill-rule="evenodd" clip-rule="evenodd" d="M377.176 284.92L256 324.232L134.824 284.92L256 245.472L377.176 284.92Z" fill="#00A2B8"/>
<path fill-rule="evenodd" clip-rule="evenodd" d="M215.984 232.48C213.832 229.448 211.984 226.4 210.432 223.352C209.432 221.384 207.024 220.6 205.056 221.608C203.088 222.608 202.304 225.016 203.304 226.984C205.024 230.368 207.072 233.752 209.464 237.12C210.744 238.92 213.24 239.336 215.04 238.064C216.84 236.784 217.264 234.28 215.984 232.48Z" fill="#B3C3C5"/>
<path fill-rule="evenodd" clip-rule="evenodd" d="M204.888 206.712C204.168 202.152 204.136 197.696 204.768 193.424C205.088 191.24 203.576 189.208 201.392 188.888C199.208 188.568 197.176 190.08 196.848 192.264C196.112 197.304 196.136 202.568 196.984 207.952C197.328 210.136 199.376 211.624 201.56 211.28C203.736 210.936 205.232 208.888 204.888 206.712Z" fill="#B3C3C5"/>
</svg>
