<svg width="512" height="512" viewBox="0 0 512 512" fill="none" xmlns="http://www.w3.org/2000/svg">
<path fill-rule="evenodd" clip-rule="evenodd" d="M391.096 186.224V290.848C391.096 290.848 391.12 300.48 390.328 315.288C390.208 317.496 391.904 319.384 394.112 319.496C396.312 319.616 398.2 317.928 398.32 315.72C399.128 300.64 399.096 290.824 399.096 290.824V186.224C399.096 184.016 397.304 182.224 395.096 182.224C392.888 182.224 391.096 184.016 391.096 186.224Z" fill="#B3C3C5"/>
<path fill-rule="evenodd" clip-rule="evenodd" d="M370.664 302.664L350.64 295.4C343.904 292.96 336.376 294.304 330.904 298.928L306.648 319.432C303.592 322.016 299.448 322.912 295.6 321.808L247.808 308.152C245.936 307.616 243.952 308.512 243.112 310.264C242.264 312.016 242.8 314.12 244.384 315.256C244.384 315.256 274.472 336.744 290.544 348.224C297.824 353.424 307.672 353.152 314.656 347.568L338.112 328.8C341.416 326.16 345.864 325.456 349.824 326.936L388.368 341.392C385.096 374.904 377.984 417.624 362.056 444.464C361.312 445.616 360.056 446.296 358.704 446.296C328.088 446.32 146.328 446.32 95.512 446.32C94.112 446.32 92.808 445.584 92.088 444.384C91.368 443.176 91.328 441.68 91.984 440.44C92.024 440.376 92.056 440.304 92.088 440.24C117.184 385.752 119.096 290.92 119.096 290.92V280.352C119.096 278.144 117.304 276.352 115.096 276.352C112.888 276.352 111.096 278.144 111.096 280.352V290.8C111.056 292.848 109.104 384.032 84.88 436.76C82.952 440.504 83.088 444.928 85.232 448.496C87.392 452.104 91.296 454.32 95.504 454.32H95.512C146.32 454.32 328.096 454.32 358.712 454.296C362.808 454.296 366.632 452.192 368.824 448.728C368.848 448.696 368.864 448.664 368.88 448.632C385.864 420.096 393.384 374.144 396.616 339.088C396.784 337.296 395.728 335.608 394.04 334.976L352.632 319.448C346.032 316.976 338.616 318.152 333.112 322.56C326.584 327.784 316.848 335.568 309.664 341.32C305.472 344.672 299.56 344.832 295.192 341.712L267.888 322.208L293.408 329.504C299.816 331.336 306.72 329.848 311.808 325.544L336.072 305.04C339.352 302.264 343.872 301.456 347.912 302.92L367.928 310.184C370.008 310.936 372.304 309.864 373.056 307.792C373.808 305.712 372.736 303.416 370.664 302.664Z" fill="#B3C3C5"/>
<path fill-rule="evenodd" clip-rule="evenodd" d="M138.384 275.896L151.6 270.936C155.56 269.456 160.008 270.16 163.312 272.8L186.76 291.568C193.752 297.152 203.6 297.424 210.88 292.224C226.952 280.744 257.04 259.256 257.04 259.256C258.624 258.12 259.16 256.016 258.312 254.264C257.472 252.512 255.488 251.616 253.616 252.152C253.616 252.152 221.376 261.368 205.816 265.808C201.976 266.912 197.832 266.016 194.776 263.432L170.52 242.928C165.048 238.304 157.52 236.96 150.784 239.4L119.096 250.896V69.68C119.096 68.616 119.52 67.6 120.272 66.848C121.024 66.096 122.04 65.68 123.096 65.68H284C286.208 65.68 288 63.888 288 61.68C288 59.472 286.208 57.68 284 57.68C243.28 57.68 150.816 57.68 123.096 57.68C119.912 57.68 116.864 58.944 114.616 61.192C112.36 63.44 111.096 66.496 111.096 69.68V256.6C111.096 257.904 111.736 259.128 112.8 259.88C113.872 260.624 115.24 260.808 116.464 260.36L153.512 246.92C157.552 245.456 162.072 246.264 165.352 249.04L189.608 269.544C194.704 273.848 201.608 275.336 208.016 273.504L233.536 266.208L206.232 285.712C201.864 288.832 195.952 288.672 191.76 285.32C184.576 279.568 174.84 271.784 168.312 266.56C162.808 262.152 155.392 260.976 148.792 263.448L135.576 268.408C133.504 269.176 132.456 271.488 133.232 273.552C134.008 275.624 136.312 276.672 138.384 275.896Z" fill="#B3C3C5"/>
<path fill-rule="evenodd" clip-rule="evenodd" d="M393.632 166.936C395.208 167.56 397.008 167.12 398.12 165.832C399.232 164.552 399.416 162.704 398.568 161.232C376 121.776 345.08 87.544 305.912 58.464C304.584 57.472 302.776 57.416 301.376 58.312C299.976 59.2 299.272 60.872 299.616 62.496C305.512 90.664 308.408 119.168 305.552 148.312C305.168 151.984 306.512 155.664 309.216 158.224C311.912 160.792 315.648 161.96 319.328 161.384C344.984 157.416 370.008 157.608 393.632 166.936Z" fill="#00A2B8"/>
<path fill-rule="evenodd" clip-rule="evenodd" d="M48.624 190.224L88.624 237.184C91.488 240.552 96.536 240.952 99.896 238.088C103.256 235.224 103.664 230.176 100.8 226.816L60.8 179.856C57.936 176.488 52.888 176.088 49.52 178.952C46.16 181.816 45.76 186.864 48.624 190.224Z" fill="#00A2B8"/>
<path fill-rule="evenodd" clip-rule="evenodd" d="M49.056 260.032L77.448 267.64C81.712 268.784 86.104 266.248 87.248 261.984C88.392 257.72 85.856 253.328 81.592 252.184L53.2 244.576C48.928 243.432 44.544 245.968 43.4 250.232C42.256 254.496 44.792 258.888 49.056 260.032Z" fill="#00A2B8"/>
<path fill-rule="evenodd" clip-rule="evenodd" d="M45.288 325.832L98.712 294.984C102.536 292.776 103.848 287.88 101.64 284.056C99.432 280.232 94.536 278.92 90.712 281.128L37.288 311.976C33.464 314.184 32.152 319.08 34.36 322.904C36.568 326.728 41.464 328.04 45.288 325.832Z" fill="#00A2B8"/>
<path fill-rule="evenodd" clip-rule="evenodd" d="M463.376 409.712L423.376 362.752C420.512 359.392 415.464 358.992 412.104 361.848C408.744 364.712 408.336 369.768 411.2 373.128L451.2 420.088C454.064 423.448 459.112 423.856 462.48 420.992C465.84 418.128 466.24 413.072 463.376 409.712Z" fill="#00A2B8"/>
<path fill-rule="evenodd" clip-rule="evenodd" d="M462.944 339.912L434.552 332.304C430.288 331.16 425.896 333.696 424.752 337.96C423.608 342.224 426.144 346.616 430.408 347.76L458.8 355.368C463.072 356.504 467.456 353.976 468.6 349.704C469.744 345.44 467.208 341.056 462.944 339.912Z" fill="#00A2B8"/>
<path fill-rule="evenodd" clip-rule="evenodd" d="M466.712 274.112L413.288 304.952C409.464 307.16 408.152 312.056 410.36 315.88C412.568 319.704 417.464 321.016 421.288 318.808L474.712 287.968C478.536 285.76 479.848 280.864 477.64 277.04C475.432 273.216 470.536 271.904 466.712 274.112Z" fill="#00A2B8"/>
<path fill-rule="evenodd" clip-rule="evenodd" d="M161.744 132.368L190.024 160.656C191.584 162.216 194.12 162.216 195.68 160.656C197.24 159.096 197.24 156.56 195.68 155L167.4 126.712C165.84 125.152 163.304 125.152 161.744 126.712C160.176 128.28 160.176 130.808 161.744 132.368Z" fill="#B3C3C5"/>
<path fill-rule="evenodd" clip-rule="evenodd" d="M190.024 126.712L161.744 155C160.176 156.56 160.176 159.096 161.744 160.656C163.304 162.216 165.84 162.216 167.4 160.656L195.68 132.368C197.24 130.808 197.24 128.28 195.68 126.712C194.12 125.152 191.584 125.152 190.024 126.712Z" fill="#B3C3C5"/>
<path fill-rule="evenodd" clip-rule="evenodd" d="M249.744 132.368L278.024 160.656C279.584 162.216 282.12 162.216 283.68 160.656C285.24 159.096 285.24 156.56 283.68 155L255.4 126.712C253.84 125.152 251.304 125.152 249.744 126.712C248.176 128.28 248.176 130.808 249.744 132.368Z" fill="#B3C3C5"/>
<path fill-rule="evenodd" clip-rule="evenodd" d="M278.024 126.712L249.744 155C248.176 156.56 248.176 159.096 249.744 160.656C251.304 162.216 253.84 162.216 255.4 160.656L283.68 132.368C285.24 130.808 285.24 128.28 283.68 126.712C282.12 125.152 279.584 125.152 278.024 126.712Z" fill="#B3C3C5"/>
<path fill-rule="evenodd" clip-rule="evenodd" d="M177.112 208.072L190.736 197.864L204.312 208.064C205.728 209.136 207.688 209.136 209.112 208.064L222.712 197.864L236.312 208.064C237.736 209.136 239.688 209.136 241.112 208.064L254.712 197.864L268.312 208.064C270.08 209.392 272.584 209.032 273.912 207.264C275.232 205.504 274.88 202.992 273.112 201.664L257.112 189.664C255.696 188.6 253.736 188.6 252.312 189.664L238.712 199.864L225.112 189.664C223.696 188.6 221.736 188.6 220.312 189.664L206.712 199.864L193.144 189.672C191.72 188.6 189.768 188.6 188.344 189.664L172.312 201.664C170.544 202.984 170.184 205.496 171.512 207.264C172.832 209.032 175.344 209.392 177.112 208.072Z" fill="#B3C3C5"/>
</svg>
