<svg width="512" height="512" viewBox="0 0 512 512" fill="none" xmlns="http://www.w3.org/2000/svg">
<path fill-rule="evenodd" clip-rule="evenodd" d="M492 193.224V298.592C492 298.592 492.448 402.512 462.96 452.208C462.216 453.352 460.96 454.04 459.608 454.04C428.992 454.064 247.24 454.064 196.424 454.064C195.024 454.064 193.728 453.336 193 452.136C192.28 450.944 192.232 449.456 192.88 448.216C192.912 448.16 192.936 448.096 192.96 448.04C211.032 408.888 217.128 348.856 219.088 318.16C219.232 315.952 217.552 314.056 215.352 313.912C213.152 313.768 211.248 315.448 211.104 317.648C209.192 347.624 203.384 406.24 185.768 444.536C183.848 448.32 184.008 452.728 186.16 456.28C188.336 459.872 192.224 462.064 196.416 462.064C247.24 462.064 429 462.064 459.608 462.04C463.712 462.04 467.528 459.936 469.728 456.464C469.744 456.44 469.768 456.408 469.784 456.376C500.128 405.368 500 298.568 500 298.568V193.224C500 191.016 498.208 189.224 496 189.224C493.792 189.224 492 191.016 492 193.224Z" fill="#B3C3C5"/>
<path fill-rule="evenodd" clip-rule="evenodd" d="M212 77.416V82.768C212 83.056 212.032 83.336 212.088 83.608C212.184 84.08 212.352 84.472 212.568 84.816L212.624 84.92C213.336 86.032 214.584 86.768 216 86.768C216 86.768 220 86.44 220 82.696V77.416C220 75.208 221.792 73.416 224 73.416H380.856C383.064 73.416 384.856 71.624 384.856 69.416C384.856 67.208 383.064 65.416 380.856 65.416C380.856 65.416 257 65.416 224 65.416C217.376 65.416 212 70.792 212 77.416Z" fill="#B3C3C5"/>
<path fill-rule="evenodd" clip-rule="evenodd" d="M494.528 174.68C496.112 175.304 497.912 174.856 499.024 173.576C500.136 172.288 500.312 170.448 499.472 168.968C476.904 129.52 445.984 95.288 406.816 66.208C405.48 65.216 403.672 65.152 402.272 66.048C400.88 66.944 400.176 68.616 400.52 70.24C406.416 98.408 409.312 126.912 406.456 156.056C406.064 159.728 407.416 163.4 410.112 165.968C412.816 168.536 416.552 169.704 420.232 169.12C445.888 165.16 470.912 165.352 494.528 174.68Z" fill="#00A2B8"/>
<path fill-rule="evenodd" clip-rule="evenodd" d="M165.952 111.072C198.08 100.176 235.056 107.528 260.648 133.12C290.72 163.192 295.608 208.976 275.304 244.152C274.744 245.128 274.616 246.288 274.952 247.36L287.552 287.304C287.72 287.848 287.576 288.432 287.176 288.832L286.104 289.904C285.792 290.208 285.336 290.32 284.92 290.192L244.776 277.528C243.704 277.192 242.544 277.32 241.576 277.88C206.4 298.184 160.616 293.304 130.544 263.232C94.6401 227.328 94.6401 169.024 130.544 133.12C132.104 131.56 132.104 129.024 130.544 127.464C128.976 125.904 126.448 125.904 124.88 127.464C85.8561 166.488 85.8561 229.856 124.88 268.888C157.136 301.136 206.008 306.736 244.032 285.68L282.512 297.824C285.776 298.848 289.344 297.976 291.76 295.56L292.832 294.488C295.344 291.976 296.248 288.28 295.176 284.904L283.104 246.608C304.152 208.592 298.552 159.712 266.304 127.464C238.488 99.648 198.304 91.656 163.384 103.496C161.296 104.2 160.168 106.48 160.88 108.568C161.592 110.656 163.864 111.784 165.952 111.072Z" fill="#B3C3C5"/>
<path fill-rule="evenodd" clip-rule="evenodd" d="M178.664 170.68C178.488 163.056 181.344 157.488 185.768 154.224C192.712 149.104 203.08 149.32 208.712 155.664C211.136 158.392 212.536 162.248 212.576 167.128C212.672 178.832 207.176 185.672 201.808 192.752C194.576 202.296 187.352 212.104 186.456 228.488C186.216 232.896 189.6 236.664 194.008 236.904C198.416 237.144 202.192 233.76 202.432 229.352C203.112 216.912 209.064 209.664 214.56 202.416C221.92 192.712 228.704 183.032 228.576 167C228.496 157.576 225.352 150.304 220.68 145.04C209.76 132.752 189.72 131.424 176.272 141.344C168.208 147.296 162.344 157.152 162.672 171.056C162.776 175.472 166.44 178.976 170.856 178.864C175.272 178.76 178.768 175.096 178.664 170.68Z" fill="#00A2B8"/>
<path d="M193.696 266.616C199.131 266.616 203.536 262.211 203.536 256.776C203.536 251.342 199.131 246.936 193.696 246.936C188.262 246.936 183.856 251.342 183.856 256.776C183.856 262.211 188.262 266.616 193.696 266.616Z" fill="#00A2B8"/>
<path fill-rule="evenodd" clip-rule="evenodd" d="M97.736 66.912L129.736 107.168C132.488 110.624 137.52 111.2 140.976 108.456C144.432 105.712 145.008 100.672 142.264 97.216L110.264 56.96C107.512 53.504 102.48 52.928 99.024 55.672C95.568 58.424 94.992 63.456 97.736 66.912Z" fill="#00A2B8"/>
<path fill-rule="evenodd" clip-rule="evenodd" d="M12.016 86.936L95.632 134.936C99.456 137.136 104.352 135.816 106.552 131.984C108.752 128.152 107.424 123.264 103.592 121.064L19.984 73.064C16.152 70.864 11.264 72.184 9.06404 76.016C6.86404 79.848 8.18404 84.736 12.016 86.936Z" fill="#00A2B8"/>
<path fill-rule="evenodd" clip-rule="evenodd" d="M24 176H80C84.416 176 88 172.416 88 168C88 163.584 84.416 160 80 160H24C19.584 160 16 163.584 16 168C16 172.416 19.584 176 24 176Z" fill="#00A2B8"/>
</svg>
