<svg width="512" height="512" viewBox="0 0 512 512" fill="none" xmlns="http://www.w3.org/2000/svg">
<path fill-rule="evenodd" clip-rule="evenodd" d="M414.328 220.936V197.568C414.328 191.208 411.8 185.104 407.296 180.6C402.792 176.104 396.688 173.568 390.328 173.568C361.68 173.568 314.488 173.568 289.224 173.568C278.928 173.568 269.784 180.136 266.488 189.888L264.208 196.936H118.328C111.96 196.936 105.856 199.464 101.352 203.968C96.8561 208.464 94.3281 214.568 94.3281 220.936H414.328Z" fill="#00A2B8"/>
<path fill-rule="evenodd" clip-rule="evenodd" d="M93.2 398.536C93.2 398.536 99.432 438.408 103.816 466.496C106.56 484.016 121.648 496.936 139.392 496.936H372.608C390.352 496.936 405.44 484.016 408.184 466.496C415.384 420.4 430.04 326.584 438.184 274.496C439.8 264.104 436.8 253.52 429.96 245.528C423.12 237.536 413.128 232.936 402.608 232.936C332.04 232.936 179.96 232.936 109.392 232.936C98.872 232.936 88.88 237.536 82.04 245.528C75.2 253.52 72.2 264.104 73.816 274.496C80.368 316.424 90.16 379.08 90.16 379.08C90.504 381.256 92.552 382.752 94.728 382.416C96.912 382.072 98.408 380.024 98.064 377.84L81.72 273.256C80.464 265.176 82.8 256.944 88.112 250.728C93.432 244.512 101.208 240.936 109.392 240.936H402.608C410.792 240.936 418.568 244.512 423.888 250.728C429.2 256.944 431.536 265.176 430.28 273.256C422.136 325.344 407.48 419.16 400.28 465.256C398.144 478.888 386.408 488.936 372.608 488.936C317.624 488.936 194.376 488.936 139.392 488.936C125.592 488.936 113.856 478.888 111.72 465.256C107.336 437.176 101.104 397.304 101.104 397.304C100.768 395.12 98.72 393.624 96.536 393.968C94.352 394.312 92.864 396.36 93.2 398.536Z" fill="#B3C3C5"/>
<path fill-rule="evenodd" clip-rule="evenodd" d="M137.72 435.528V443.712C137.72 454.76 146.68 463.712 157.72 463.712H221.72C232.768 463.712 241.72 454.76 241.72 443.712V427.712C241.72 416.672 232.768 407.712 221.72 407.712H157.72C152.216 407.712 147.224 409.944 143.6 413.552C142.04 415.112 142.04 417.64 143.592 419.208C145.152 420.768 147.688 420.776 149.248 419.216C151.424 417.048 154.416 415.712 157.72 415.712H221.72C228.352 415.712 233.72 421.088 233.72 427.712V443.712C233.72 450.344 228.352 455.712 221.728 455.712C221.72 455.712 157.72 455.712 157.72 455.712C151.096 455.712 145.728 450.344 145.72 443.712V435.528C145.72 433.328 143.928 431.528 141.72 431.528C139.52 431.528 137.72 433.328 137.72 435.528Z" fill="#B3C3C5"/>
<path fill-rule="evenodd" clip-rule="evenodd" d="M188.632 179.136C191.184 174.696 194.624 170.664 198.864 167.16C200.568 165.752 200.8 163.224 199.4 161.528C197.992 159.824 195.464 159.584 193.768 160.992C188.76 165.128 184.72 169.904 181.696 175.144C180.592 177.056 181.256 179.504 183.168 180.608C185.08 181.704 187.528 181.048 188.632 179.136Z" fill="#B3C3C5"/>
<path fill-rule="evenodd" clip-rule="evenodd" d="M214.256 158.208C220.672 155.648 227.984 153.896 236.104 153.08C238.296 152.864 239.904 150.904 239.68 148.704C239.464 146.512 237.504 144.904 235.304 145.12C226.384 146.016 218.352 147.968 211.296 150.768C209.248 151.584 208.24 153.912 209.056 155.968C209.872 158.016 212.2 159.024 214.256 158.208Z" fill="#B3C3C5"/>
<path fill-rule="evenodd" clip-rule="evenodd" d="M255.696 152.928C265.16 153.64 273.816 153.792 281.72 153.456C283.928 153.368 285.64 151.504 285.552 149.296C285.456 147.088 283.592 145.376 281.384 145.464C273.76 145.784 265.416 145.632 256.304 144.944C254.096 144.784 252.176 146.432 252.008 148.632C251.848 150.84 253.496 152.76 255.696 152.928Z" fill="#B3C3C5"/>
<path fill-rule="evenodd" clip-rule="evenodd" d="M303.312 151.088C312.648 149.336 320.552 146.744 327.2 143.552C329.192 142.592 330.032 140.2 329.08 138.216C328.12 136.224 325.728 135.384 323.736 136.336C317.648 139.264 310.392 141.624 301.84 143.232C299.664 143.64 298.24 145.728 298.648 147.896C299.056 150.072 301.144 151.496 303.312 151.088Z" fill="#B3C3C5"/>
<path fill-rule="evenodd" clip-rule="evenodd" d="M343.504 132.44C350.672 125.52 354.88 117.552 356.776 109.448C357.28 107.296 355.944 105.144 353.792 104.64C351.648 104.136 349.488 105.472 348.992 107.624C347.416 114.352 343.896 120.944 337.952 126.68C336.36 128.216 336.32 130.752 337.848 132.336C339.384 133.928 341.92 133.976 343.504 132.44Z" fill="#B3C3C5"/>
<path fill-rule="evenodd" clip-rule="evenodd" d="M354.872 81.904C351.704 73.472 346.312 66.312 339.76 61.784C337.944 60.536 335.448 60.992 334.192 62.808C332.944 64.624 333.4 67.12 335.216 68.368C340.528 72.032 344.816 77.888 347.384 84.72C348.16 86.784 350.472 87.832 352.536 87.056C354.6 86.28 355.648 83.968 354.872 81.904Z" fill="#B3C3C5"/>
<path fill-rule="evenodd" clip-rule="evenodd" d="M250.648 61.768C255.048 41.16 272.552 31.136 285.176 31.064C289.312 31.04 292.904 32.016 294.776 34.512C295.872 35.992 296.208 37.976 295.792 40.408C295.416 42.584 296.872 44.656 299.048 45.032C301.224 45.408 303.296 43.944 303.672 41.768C304.536 36.768 303.448 32.76 301.184 29.728C298 25.464 292.184 23.024 285.128 23.064C269.768 23.152 248.176 35.016 242.824 60.104C242.36 62.264 243.744 64.384 245.904 64.848C248.064 65.312 250.184 63.928 250.648 61.768Z" fill="#B3C3C5"/>
<path fill-rule="evenodd" clip-rule="evenodd" d="M242.864 61.784C248.272 86.744 269.792 98.552 285.112 98.648C292.704 98.688 298.856 95.864 301.872 90.976C303.68 88.032 304.472 84.28 303.632 79.696C302.584 74.056 298.872 66.832 291.104 58.248C289.624 56.616 287.096 56.488 285.456 57.968C283.824 59.448 283.696 61.984 285.176 63.624C290.592 69.6 293.8 74.696 295.2 78.976C296.272 82.24 296.24 84.856 295.056 86.784C293.992 88.512 292.064 89.568 289.76 90.144C286.856 90.864 283.368 90.808 279.704 90.032C267.96 87.552 254.504 77.736 250.68 60.088C250.216 57.928 248.08 56.56 245.92 57.024C243.768 57.496 242.392 59.624 242.864 61.784Z" fill="#B3C3C5"/>
<path fill-rule="evenodd" clip-rule="evenodd" d="M245.688 68.936H299.248C303.664 68.936 307.248 65.352 307.248 60.936C307.248 56.52 303.664 52.936 299.248 52.936H245.688C241.272 52.936 237.688 56.52 237.688 60.936C237.688 65.352 241.272 68.936 245.688 68.936Z" fill="#00A2B8"/>
</svg>
