<svg width="512" height="512" viewBox="0 0 512 512" fill="none" xmlns="http://www.w3.org/2000/svg">
<path fill-rule="evenodd" clip-rule="evenodd" d="M413.68 184.184V237.2C413.68 239.408 415.472 241.2 417.68 241.2C419.888 241.2 421.68 239.408 421.68 237.2V184.184C421.68 181.976 419.888 180.184 417.68 180.184C415.472 180.184 413.68 181.976 413.68 184.184Z" fill="#B3C3C5"/>
<path fill-rule="evenodd" clip-rule="evenodd" d="M390.84 432.248C388.952 436.56 386.904 440.632 384.68 444.384C383.96 445.584 382.664 446.312 381.264 446.312C350.584 446.32 168.896 446.32 118.096 446.32C116.696 446.32 115.392 445.584 114.672 444.384C113.944 443.176 113.912 441.68 114.568 440.44C114.608 440.376 114.64 440.304 114.672 440.24C139.768 385.752 141.68 290.92 141.68 290.92V245.064C141.68 242.856 139.888 241.064 137.68 241.064C135.472 241.064 133.68 242.856 133.68 245.064V290.8C133.64 292.848 131.688 384.032 107.464 436.76C105.528 440.504 105.664 444.928 107.808 448.496C109.976 452.104 113.88 454.32 118.088 454.32C168.888 454.32 350.592 454.32 381.264 454.312C385.472 454.312 389.368 452.112 391.536 448.512C391.544 448.504 391.544 448.488 391.552 448.48C393.936 444.456 396.144 440.088 398.168 435.464C399.056 433.44 398.136 431.08 396.112 430.192C394.088 429.304 391.728 430.224 390.84 432.248Z" fill="#B3C3C5"/>
<path fill-rule="evenodd" clip-rule="evenodd" d="M141.68 87.592V69.68C141.68 67.472 143.472 65.68 145.68 65.68H306.176C308.384 65.68 310.176 63.888 310.176 61.68C310.176 59.472 308.384 57.68 306.176 57.68C306.176 57.68 179.144 57.68 145.68 57.68C139.056 57.68 133.68 63.048 133.68 69.68V87.592C133.68 89.8 135.472 91.592 137.68 91.592C139.888 91.592 141.68 89.8 141.68 87.592Z" fill="#B3C3C5"/>
<path fill-rule="evenodd" clip-rule="evenodd" d="M326.176 57.68H326.104C325.36 57.68 324.608 57.888 323.952 58.312C322.56 59.2 321.856 60.872 322.2 62.496C328.096 90.664 330.992 119.168 328.136 148.312C327.744 151.984 329.096 155.664 331.792 158.224C334.032 160.352 336.976 161.52 340.016 161.528H340.184C340.76 161.52 341.336 161.472 341.912 161.384C351.928 159.832 361.856 158.92 371.64 158.936H372.224C387.28 159.016 402 161.328 416.208 166.936C416.68 167.12 417.168 167.208 417.656 167.216H417.728C418.848 167.2 419.936 166.712 420.704 165.832C421.816 164.552 421.992 162.704 421.152 161.232C398.584 121.776 367.664 87.544 328.496 58.464C327.808 57.952 326.992 57.688 326.176 57.68Z" fill="#00A2B8"/>
<path fill-rule="evenodd" clip-rule="evenodd" d="M421.296 252C374.928 252 337.296 289.64 337.296 336C337.296 382.36 374.928 420 421.296 420C467.656 420 505.296 382.36 505.296 336C505.296 289.64 467.656 252 421.296 252ZM421.296 260C463.24 260 497.296 294.056 497.296 336C497.296 377.944 463.24 412 421.296 412C379.344 412 345.296 377.944 345.296 336C345.296 294.056 379.344 260 421.296 260Z" fill="#B3C3C5"/>
<path fill-rule="evenodd" clip-rule="evenodd" d="M413.296 296V376C413.296 380.416 416.88 384 421.296 384C425.712 384 429.296 380.416 429.296 376V296C429.296 291.584 425.712 288 421.296 288C416.88 288 413.296 291.584 413.296 296Z" fill="#00A2B8"/>
<path fill-rule="evenodd" clip-rule="evenodd" d="M461.296 328H381.296C376.88 328 373.296 331.584 373.296 336C373.296 340.416 376.88 344 381.296 344H461.296C465.712 344 469.296 340.416 469.296 336C469.296 331.584 465.712 328 461.296 328Z" fill="#00A2B8"/>
<path fill-rule="evenodd" clip-rule="evenodd" d="M181.104 182.52L197.504 175.888C202.04 174.056 205.008 169.656 205.008 164.76C205.008 159.872 202.032 155.472 197.504 153.64C192.464 151.6 186.816 149.32 181.12 147.016C157.992 137.672 139.648 119.336 130.296 96.208L123.656 79.792C121.824 75.256 117.424 72.288 112.528 72.288C107.64 72.288 103.24 75.256 101.408 79.792L94.792 96.16C85.448 119.288 67.112 137.632 43.984 146.984C38.264 149.304 32.592 151.592 27.544 153.64C23.008 155.472 20.04 159.872 20.04 164.76C20.04 169.656 23.008 174.056 27.544 175.888C32.6 177.928 38.272 180.224 43.992 182.544C67.12 191.896 85.456 210.24 94.8 233.368L101.408 249.728C103.24 254.264 107.64 257.232 112.528 257.232C117.424 257.232 121.824 254.264 123.656 249.728C125.696 244.696 127.984 239.04 130.288 233.336C139.632 210.208 157.976 191.864 181.104 182.52ZM194.504 168.472L178.104 175.104C152.968 185.264 133.032 205.2 122.872 230.336C120.56 236.04 118.28 241.696 116.24 246.736C115.632 248.24 114.16 249.232 112.536 249.232C110.904 249.232 109.432 248.24 108.824 246.728L102.216 230.376C92.056 205.232 72.128 185.296 46.992 175.128L30.544 168.472C29.032 167.856 28.04 166.392 28.04 164.76C28.04 163.136 29.032 161.664 30.544 161.056L46.984 154.408C72.12 144.24 92.056 124.296 102.208 99.16L108.824 82.792C109.432 81.28 110.904 80.288 112.536 80.288C114.16 80.288 115.632 81.272 116.24 82.784L122.88 99.208C133.048 124.344 152.984 144.28 178.12 154.432L194.504 161.056C196.016 161.664 197.008 163.136 197.008 164.76C197.008 166.392 196.016 167.864 194.504 168.472Z" fill="#B3C3C5"/>
<path fill-rule="evenodd" clip-rule="evenodd" d="M276.808 310.256C280.68 308.696 283.208 304.936 283.208 300.76C283.208 296.592 280.672 292.832 276.808 291.272C276.8 291.264 276.8 291.264 276.792 291.264C256.072 282.888 239.632 266.456 231.248 245.728C231.248 245.72 231.24 245.704 231.232 245.696C229.672 241.824 225.912 239.288 221.744 239.288C217.568 239.296 213.808 241.824 212.248 245.696C203.872 266.424 187.44 282.864 166.712 291.248C166.704 291.256 166.688 291.256 166.68 291.264C162.808 292.824 160.272 296.584 160.272 300.76C160.272 304.936 162.808 308.696 166.68 310.264C166.696 310.272 166.712 310.272 166.728 310.28C187.448 318.664 203.872 335.096 212.248 355.824C212.248 355.832 212.248 355.84 212.256 355.84C213.816 359.712 217.568 362.24 221.744 362.24C225.912 362.24 229.664 359.712 231.232 355.848C231.232 355.832 231.24 355.824 231.24 355.816C239.624 335.08 256.056 318.64 276.792 310.264L276.808 310.256ZM273.808 302.84L273.792 302.848C251.048 312.04 233.016 330.072 223.824 352.816L223.808 352.848C223.472 353.688 222.648 354.24 221.744 354.24C220.832 354.24 220.016 353.688 219.672 352.848L219.664 352.824C210.48 330.096 192.456 312.064 169.728 302.864L169.68 302.848C168.832 302.504 168.272 301.68 168.272 300.76C168.272 299.848 168.832 299.024 169.68 298.68L169.712 298.664C192.448 289.472 210.48 271.432 219.664 248.696C220.008 247.848 220.832 247.288 221.744 247.288C222.656 247.288 223.48 247.848 223.816 248.688L223.832 248.728C233.024 271.464 251.064 289.496 273.8 298.68L273.808 298.688C274.656 299.032 275.208 299.848 275.208 300.76C275.208 301.68 274.656 302.496 273.808 302.84Z" fill="#B3C3C5"/>
</svg>
