<svg width="308" height="299" viewBox="0 0 308 299" fill="none" xmlns="http://www.w3.org/2000/svg">
<path d="M138.594 298.522C201.362 298.522 252.246 295.189 252.246 291.077C252.246 286.965 201.362 283.631 138.594 283.631C75.8264 283.631 24.9429 286.965 24.9429 291.077C24.9429 295.189 75.8264 298.522 138.594 298.522Z" fill="#007665"/>
<path opacity="0.5" d="M138.594 298.522C201.362 298.522 252.246 295.189 252.246 291.077C252.246 286.965 201.362 283.631 138.594 283.631C75.8264 283.631 24.9429 286.965 24.9429 291.077C24.9429 295.189 75.8264 298.522 138.594 298.522Z" fill="white"/>
<path d="M217.552 190.456C215.428 195.694 213.251 191.484 213.599 169.534C213.757 159.254 214.483 138.234 225.859 142.86C236.788 147.304 222.382 178.385 222.382 178.385L217.552 190.456ZM233.168 193.571C233.168 193.571 256.879 168.861 247.99 161.068C238.731 153.011 231.225 172.663 227.733 182.354C220.28 202.996 220.93 207.682 224.672 203.419L233.168 193.571ZM238.172 215.748C238.172 215.748 259.88 200.29 254.204 193.072C248.3 185.566 239.706 199.489 235.64 206.382C226.947 221.084 226.796 224.765 230.25 222.044L238.172 215.748ZM244.045 237.856C244.045 237.856 265.761 222.399 260.084 215.181C254.173 207.675 245.587 221.598 241.513 228.491C232.828 243.193 232.669 246.881 236.123 244.16L244.045 237.856ZM206.131 193.404C206.131 193.404 175.753 177.592 170.817 188.302C165.669 199.451 186.629 201.152 196.902 201.772C218.822 203.125 223.107 201.144 217.975 198.786L206.131 193.404ZM210.409 210.789C210.409 210.789 177.499 201.333 174.785 212.815C171.958 224.765 192.835 222.255 203.024 220.834C224.763 217.811 228.587 215.007 223.092 213.714L210.409 210.789ZM217.968 229.769C217.968 229.769 189.917 222.535 187.884 232.308C185.775 242.475 203.372 239.867 211.958 238.431C230.265 235.362 233.44 232.913 228.761 231.946L217.968 229.769ZM222.359 245.438C222.359 245.438 195.231 235.264 192.177 244.765C189.003 254.652 206.773 253.926 215.458 253.412C233.992 252.309 237.378 250.2 232.843 248.748L222.359 245.438ZM204.218 166.072C204.218 166.072 191.837 127.584 177.763 134.575C163.13 141.847 180.031 159.209 188.496 167.516C206.539 185.241 212.117 186.488 209.744 180.298L204.218 166.072Z" fill="#007665"/>
<path opacity="0.65" d="M217.552 190.456C215.428 195.694 213.251 191.484 213.599 169.534C213.757 159.254 214.483 138.234 225.859 142.86C236.788 147.304 222.382 178.385 222.382 178.385L217.552 190.456ZM233.168 193.571C233.168 193.571 256.879 168.861 247.99 161.068C238.731 153.011 231.225 172.663 227.733 182.354C220.28 202.996 220.93 207.682 224.672 203.419L233.168 193.571ZM238.172 215.748C238.172 215.748 259.88 200.29 254.204 193.072C248.3 185.566 239.706 199.489 235.64 206.382C226.947 221.084 226.796 224.765 230.25 222.044L238.172 215.748ZM244.045 237.856C244.045 237.856 265.761 222.399 260.084 215.181C254.173 207.675 245.587 221.598 241.513 228.491C232.828 243.193 232.669 246.881 236.123 244.16L244.045 237.856ZM206.131 193.404C206.131 193.404 175.753 177.592 170.817 188.302C165.669 199.451 186.629 201.152 196.902 201.772C218.822 203.125 223.107 201.144 217.975 198.786L206.131 193.404ZM210.409 210.789C210.409 210.789 177.499 201.333 174.785 212.815C171.958 224.765 192.835 222.255 203.024 220.834C224.763 217.811 228.587 215.007 223.092 213.714L210.409 210.789ZM217.968 229.769C217.968 229.769 189.917 222.535 187.884 232.308C185.775 242.475 203.372 239.867 211.958 238.431C230.265 235.362 233.44 232.913 228.761 231.946L217.968 229.769ZM222.359 245.438C222.359 245.438 195.231 235.264 192.177 244.765C189.003 254.652 206.773 253.926 215.458 253.412C233.992 252.309 237.378 250.2 232.843 248.748L222.359 245.438ZM204.218 166.072C204.218 166.072 191.837 127.584 177.763 134.575C163.13 141.847 180.031 159.209 188.496 167.516C206.539 185.241 212.117 186.488 209.744 180.298L204.218 166.072Z" fill="white"/>
<path d="M183.614 148.302C183.614 148.302 214.717 186.246 222.163 205.248C230.719 227.07 236.403 252.21 237.559 272.573" stroke="#CCCCCC" stroke-width="0.308211" stroke-linecap="round" stroke-linejoin="round"/>
<path d="M215.964 192.852L220.295 156.669" stroke="#CCCCCC" stroke-width="0.308211" stroke-linecap="round" stroke-linejoin="round"/>
<path d="M222.155 205.249L237.801 174.833" stroke="#CCCCCC" stroke-width="0.308211" stroke-linecap="round" stroke-linejoin="round"/>
<path d="M219.872 200.736L187.105 194.062" stroke="#CCCCCC" stroke-width="0.308211" stroke-linecap="round" stroke-linejoin="round"/>
<path d="M228.315 222.505L247.582 200.555" stroke="#CCCCCC" stroke-width="0.308211" stroke-linecap="round" stroke-linejoin="round"/>
<path d="M225.624 215.271L200.885 215.06" stroke="#CCCCCC" stroke-width="0.308211" stroke-linecap="round" stroke-linejoin="round"/>
<path d="M230.386 233.231L211.414 233.986" stroke="#CCCCCC" stroke-width="0.308211" stroke-linecap="round" stroke-linejoin="round"/>
<path d="M234.286 244.697L244.445 231.152" stroke="#CCCCCC" stroke-width="0.308211" stroke-linecap="round" stroke-linejoin="round"/>
<path d="M235.027 249.731L212.835 248.628" stroke="#CCCCCC" stroke-width="0.308211" stroke-linecap="round" stroke-linejoin="round"/>
<path d="M277.401 220.426C273.569 221.87 274.74 218.65 286.585 208.045C292.133 203.072 303.667 193.132 306.796 201.454C309.82 209.451 286.199 217.063 286.199 217.063L277.401 220.426ZM283.448 230.253C283.448 230.253 308.248 230.721 307.998 222.18C307.741 213.291 293.599 218.952 286.736 221.847C272.095 228.03 269.941 230.698 274.03 230.578L283.448 230.253ZM274.105 243.813C274.105 243.813 293.002 247.766 294.045 241.197C295.141 234.395 283.508 236.662 277.839 237.864C265.745 240.464 263.712 242.195 266.857 242.694L274.105 243.813ZM265.231 257.804C265.231 257.804 284.128 261.757 285.179 255.188C286.267 248.386 274.597 250.653 268.973 251.855C256.879 254.463 254.846 256.194 257.99 256.693L265.231 257.804ZM270.243 215.785C270.243 215.785 263.727 191.855 255.594 194.493C247.136 197.244 256.539 209.217 261.256 214.992C271.301 227.305 274.468 228.597 273.206 224.735L270.243 215.785ZM263.039 226.632C263.039 226.632 251.891 204.478 244.445 208.68C236.705 213.049 248.3 222.921 254.067 227.645C266.358 237.713 269.729 238.378 267.711 234.818L263.039 226.632ZM256.645 239.973C256.645 239.973 246.705 221.492 240.507 225.218C234.06 229.096 244.098 237.169 249.079 241.031C259.714 249.262 262.578 249.761 260.772 246.783L256.645 239.973ZM250.469 250.011C250.469 250.011 242.548 230.578 235.995 233.624C229.192 236.791 238.262 245.891 242.797 250.253C252.533 259.588 255.33 260.343 253.871 257.222L250.469 250.011ZM283.727 201.333C283.727 201.333 298.089 175.83 287.507 171.787C276.448 167.584 275.526 185.105 275.262 193.707C274.695 212.014 276.773 215.627 278.905 211.288L283.727 201.333Z" fill="#007665"/>
<path opacity="0.65" d="M277.401 220.426C273.569 221.87 274.74 218.65 286.585 208.045C292.133 203.072 303.667 193.132 306.796 201.454C309.82 209.451 286.199 217.063 286.199 217.063L277.401 220.426ZM283.448 230.253C283.448 230.253 308.248 230.721 307.998 222.18C307.741 213.291 293.599 218.952 286.736 221.847C272.095 228.03 269.941 230.698 274.03 230.578L283.448 230.253ZM274.105 243.813C274.105 243.813 293.002 247.766 294.045 241.197C295.141 234.395 283.508 236.662 277.839 237.864C265.745 240.464 263.712 242.195 266.857 242.694L274.105 243.813ZM265.231 257.804C265.231 257.804 284.128 261.757 285.179 255.188C286.267 248.386 274.597 250.653 268.973 251.855C256.879 254.463 254.846 256.194 257.99 256.693L265.231 257.804ZM270.243 215.785C270.243 215.785 263.727 191.855 255.594 194.493C247.136 197.244 256.539 209.217 261.256 214.992C271.301 227.305 274.468 228.597 273.206 224.735L270.243 215.785ZM263.039 226.632C263.039 226.632 251.891 204.478 244.445 208.68C236.705 213.049 248.3 222.921 254.067 227.645C266.358 237.713 269.729 238.378 267.711 234.818L263.039 226.632ZM256.645 239.973C256.645 239.973 246.705 221.492 240.507 225.218C234.06 229.096 244.098 237.169 249.079 241.031C259.714 249.262 262.578 249.761 260.772 246.783L256.645 239.973ZM250.469 250.011C250.469 250.011 242.548 230.578 235.995 233.624C229.192 236.791 238.262 245.891 242.797 250.253C252.533 259.588 255.33 260.343 253.871 257.222L250.469 250.011ZM283.727 201.333C283.727 201.333 298.089 175.83 287.507 171.787C276.448 167.584 275.526 185.105 275.262 193.707C274.695 212.014 276.773 215.627 278.905 211.288L283.727 201.333Z" fill="#E5E5E5"/>
<path d="M283.115 181.658C283.115 181.658 278.217 216.851 271.777 230.147C264.37 245.423 253.795 260.812 243.531 271.432" stroke="#CCCCCC" stroke-width="0.308211" stroke-linecap="round" stroke-linejoin="round"/>
<path d="M275.315 220.766L296.69 205.279" stroke="#CCCCCC" stroke-width="0.308211" stroke-linecap="round" stroke-linejoin="round"/>
<path d="M271.77 230.147L295.64 223.525" stroke="#CCCCCC" stroke-width="0.308211" stroke-linecap="round" stroke-linejoin="round"/>
<path d="M273.04 226.723L260.485 206.004" stroke="#CCCCCC" stroke-width="0.308211" stroke-linecap="round" stroke-linejoin="round"/>
<path d="M265.617 241.908L286.758 241.364" stroke="#CCCCCC" stroke-width="0.308211" stroke-linecap="round" stroke-linejoin="round"/>
<path d="M268.134 236.919L256.093 223.661" stroke="#CCCCCC" stroke-width="0.308211" stroke-linecap="round" stroke-linejoin="round"/>
<path d="M260.923 248.28L251.203 238.559" stroke="#CCCCCC" stroke-width="0.308211" stroke-linecap="round" stroke-linejoin="round"/>
<path d="M256.743 255.99L268.943 254.735" stroke="#CCCCCC" stroke-width="0.308211" stroke-linecap="round" stroke-linejoin="round"/>
<path d="M254.43 258.862L244.113 246.511" stroke="#CCCCCC" stroke-width="0.308211" stroke-linecap="round" stroke-linejoin="round"/>
<path d="M57.1953 49.0042C55.3586 53.5394 53.4841 49.8886 53.7788 30.9316C53.9149 22.0426 54.5347 3.88681 64.3609 7.88532C73.8016 11.7251 61.3375 38.5658 61.3375 38.5658L57.1953 49.0042ZM70.6875 51.7253C70.6875 51.7253 91.1789 30.3722 83.4918 23.6753C75.4948 16.7062 69.0095 33.6753 65.986 42.0352C59.5536 59.866 60.1432 63.9552 63.3481 60.2364L70.6875 51.7253ZM75.011 70.8789C75.011 70.8789 93.764 57.5304 88.8584 51.2945C83.7563 44.8092 76.3413 56.835 72.819 62.7912C65.3133 75.4972 65.1848 78.6643 68.1629 76.3287L75.011 70.8789ZM80.1207 89.9493C80.1207 89.9493 98.8812 76.6008 93.9756 70.3649C88.8735 63.8796 81.451 75.9129 77.9362 81.8616C70.4305 94.5676 70.2944 97.7347 73.2801 95.3991L80.1207 89.9493ZM47.3691 51.5439C47.3691 51.5439 21.0878 37.8855 16.8172 47.1448C12.3727 56.7745 30.4832 58.2333 39.3494 58.7775C58.246 59.9491 62.0253 58.2409 57.5657 56.2L47.3691 51.5439ZM51.0653 66.5856C51.0653 66.5856 22.592 58.4147 20.2488 68.3543C17.8074 78.6794 35.8422 76.5101 44.648 75.2856C63.4236 72.6627 66.7268 70.2515 61.9799 69.1329L51.0653 66.5856ZM57.5733 82.9803C57.5733 82.9803 33.3403 76.7293 31.5867 85.1722C29.7575 93.9629 44.9655 91.7029 52.3805 90.4633C68.2007 87.8178 70.9369 85.6938 66.8931 84.8623L57.5733 82.9803ZM61.3526 96.5177C61.3526 96.5177 37.9208 87.7271 35.2753 95.9357C32.5315 104.477 47.8831 103.85 55.3888 103.404C71.4056 102.451 74.3534 100.637 70.4229 99.3749L61.3526 96.5177ZM45.6382 27.9459C45.6382 27.9459 34.9352 -5.31203 22.796 0.734866C10.1505 7.02364 24.7613 22.02 32.0629 29.1931C47.6488 44.5144 52.4712 45.5877 50.4228 40.2362L45.6382 27.9459Z" fill="#007665"/>
<path opacity="0.65" d="M57.1953 49.0042C55.3586 53.5394 53.4841 49.8886 53.7788 30.9316C53.9149 22.0426 54.5347 3.88681 64.3609 7.88532C73.8016 11.7251 61.3375 38.5658 61.3375 38.5658L57.1953 49.0042ZM70.6875 51.7253C70.6875 51.7253 91.1789 30.3722 83.4918 23.6753C75.4948 16.7062 69.0095 33.6753 65.986 42.0352C59.5536 59.866 60.1432 63.9552 63.3481 60.2364L70.6875 51.7253ZM75.011 70.8789C75.011 70.8789 93.764 57.5304 88.8584 51.2945C83.7563 44.8092 76.3413 56.835 72.819 62.7912C65.3133 75.4972 65.1848 78.6643 68.1629 76.3287L75.011 70.8789ZM80.1207 89.9493C80.1207 89.9493 98.8812 76.6008 93.9756 70.3649C88.8735 63.8796 81.451 75.9129 77.9362 81.8616C70.4305 94.5676 70.2944 97.7347 73.2801 95.3991L80.1207 89.9493ZM47.3691 51.5439C47.3691 51.5439 21.0878 37.8855 16.8172 47.1448C12.3727 56.7745 30.4832 58.2333 39.3494 58.7775C58.246 59.9491 62.0253 58.2409 57.5657 56.2L47.3691 51.5439ZM51.0653 66.5856C51.0653 66.5856 22.592 58.4147 20.2488 68.3543C17.8074 78.6794 35.8422 76.5101 44.648 75.2856C63.4236 72.6627 66.7268 70.2515 61.9799 69.1329L51.0653 66.5856ZM57.5733 82.9803C57.5733 82.9803 33.3403 76.7293 31.5867 85.1722C29.7575 93.9629 44.9655 91.7029 52.3805 90.4633C68.2007 87.8178 70.9369 85.6938 66.8931 84.8623L57.5733 82.9803ZM61.3526 96.5177C61.3526 96.5177 37.9208 87.7271 35.2753 95.9357C32.5315 104.477 47.8831 103.85 55.3888 103.404C71.4056 102.451 74.3534 100.637 70.4229 99.3749L61.3526 96.5177ZM45.6382 27.9459C45.6382 27.9459 34.9352 -5.31203 22.796 0.734866C10.1505 7.02364 24.7613 22.02 32.0629 29.1931C47.6488 44.5144 52.4712 45.5877 50.4228 40.2362L45.6382 27.9459Z" fill="#E5E5E5"/>
<path d="M27.8757 12.5868C27.8757 12.5868 54.7466 45.3685 61.179 61.7783C68.5638 80.6749 73.4769 102.353 74.4746 119.98" stroke="#CCCCCC" stroke-width="0.308211" stroke-linecap="round" stroke-linejoin="round"/>
<path d="M55.8274 51.0753L59.5614 19.8128" stroke="#CCCCCC" stroke-width="0.308211" stroke-linecap="round" stroke-linejoin="round"/>
<path d="M61.179 61.7783L74.6938 35.5045" stroke="#CCCCCC" stroke-width="0.308211" stroke-linecap="round" stroke-linejoin="round"/>
<path d="M59.1986 57.8856L30.8916 52.1184" stroke="#CCCCCC" stroke-width="0.308211" stroke-linecap="round" stroke-linejoin="round"/>
<path d="M66.4924 76.6915L83.1365 57.7269" stroke="#CCCCCC" stroke-width="0.308211" stroke-linecap="round" stroke-linejoin="round"/>
<path d="M64.1644 70.4481L42.7961 70.2591" stroke="#CCCCCC" stroke-width="0.308211" stroke-linecap="round" stroke-linejoin="round"/>
<path d="M68.2841 85.9584L51.8894 86.6084" stroke="#CCCCCC" stroke-width="0.308211" stroke-linecap="round" stroke-linejoin="round"/>
<path d="M71.6475 95.8601L80.4306 84.1669" stroke="#CCCCCC" stroke-width="0.308211" stroke-linecap="round" stroke-linejoin="round"/>
<path d="M72.29 100.214L53.1213 99.2615" stroke="#CCCCCC" stroke-width="0.308211" stroke-linecap="round" stroke-linejoin="round"/>
<path d="M149.018 79.1253C145.714 80.3725 146.75 77.6136 156.954 68.4223C161.746 64.129 171.716 55.5726 174.415 62.7307C177.015 69.6392 156.622 76.2152 156.622 76.2152L149.018 79.1253ZM154.195 87.6212C154.195 87.6212 175.616 88.0294 175.405 80.6522C175.178 72.965 162.963 77.8555 157.037 80.3649C144.384 85.7013 142.525 88.0143 146.055 87.9235L154.195 87.6212ZM146.153 99.3446C146.153 99.3446 162.479 102.761 163.379 97.077C164.324 91.1738 154.309 93.1466 149.38 94.1972C138.934 96.4648 137.173 97.9765 139.894 98.3771L146.153 99.3446ZM138.488 111.438C138.488 111.438 154.807 114.847 155.715 109.171C156.659 103.268 146.644 105.233 141.716 106.291C131.27 108.559 129.509 110.033 132.23 110.463L138.488 111.438ZM142.857 75.157C142.857 75.157 137.219 54.4842 130.197 56.7593C122.895 59.1328 131.02 69.4805 135.087 74.4692C143.764 85.1117 146.508 86.2455 145.412 82.8895L142.857 75.157ZM136.674 84.5146C136.674 84.5146 126.984 65.3308 120.574 68.9741C113.885 72.7534 123.908 81.2795 128.889 85.3536C139.516 94.0612 142.426 94.628 140.68 91.5517L136.674 84.5146ZM131.149 96.0339C131.149 96.0339 122.525 80.0399 117.158 83.2599C111.587 86.6084 120.257 93.585 124.565 96.9183C133.749 104.039 136.221 104.477 134.679 101.892L131.149 96.0339ZM125.813 104.711C125.813 104.711 118.972 87.9235 113.311 90.5539C107.415 93.2902 115.291 101.136 119.221 104.915C127.596 112.965 130.015 113.638 128.753 110.962L125.813 104.711ZM154.535 62.6551C154.535 62.6551 166.969 40.6217 157.786 37.1296C148.224 33.4939 147.43 48.6338 147.204 56.0262C146.72 71.8464 148.519 74.9227 150.348 71.219L154.535 62.6551Z" fill="#007665"/>
<path opacity="0.65" d="M149.018 79.1253C145.714 80.3725 146.75 77.6136 156.954 68.4223C161.746 64.129 171.716 55.5726 174.415 62.7307C177.015 69.6392 156.622 76.2152 156.622 76.2152L149.018 79.1253ZM154.195 87.6212C154.195 87.6212 175.616 88.0294 175.405 80.6522C175.178 72.965 162.963 77.8555 157.037 80.3649C144.384 85.7013 142.525 88.0143 146.055 87.9235L154.195 87.6212ZM146.153 99.3446C146.153 99.3446 162.479 102.761 163.379 97.077C164.324 91.1738 154.309 93.1466 149.38 94.1972C138.934 96.4648 137.173 97.9765 139.894 98.3771L146.153 99.3446ZM138.488 111.438C138.488 111.438 154.807 114.847 155.715 109.171C156.659 103.268 146.644 105.233 141.716 106.291C131.27 108.559 129.509 110.033 132.23 110.463L138.488 111.438ZM142.857 75.157C142.857 75.157 137.219 54.4842 130.197 56.7593C122.895 59.1328 131.02 69.4805 135.087 74.4692C143.764 85.1117 146.508 86.2455 145.412 82.8895L142.857 75.157ZM136.674 84.5146C136.674 84.5146 126.984 65.3308 120.574 68.9741C113.885 72.7534 123.908 81.2795 128.889 85.3536C139.516 94.0612 142.426 94.628 140.68 91.5517L136.674 84.5146ZM131.149 96.0339C131.149 96.0339 122.525 80.0399 117.158 83.2599C111.587 86.6084 120.257 93.585 124.565 96.9183C133.749 104.039 136.221 104.477 134.679 101.892L131.149 96.0339ZM125.813 104.711C125.813 104.711 118.972 87.9235 113.311 90.5539C107.415 93.2902 115.291 101.136 119.221 104.915C127.596 112.965 130.015 113.638 128.753 110.962L125.813 104.711ZM154.535 62.6551C154.535 62.6551 166.969 40.6217 157.786 37.1296C148.224 33.4939 147.43 48.6338 147.204 56.0262C146.72 71.8464 148.519 74.9227 150.348 71.219L154.535 62.6551Z" fill="white"/>
<path d="M153.976 45.6255C153.976 45.6255 149.751 76.0339 144.15 87.523C137.748 100.72 128.609 113.978 119.743 123.185" stroke="#CCCCCC" stroke-width="0.308211" stroke-linecap="round" stroke-linejoin="round"/>
<path d="M147.241 79.4126L165.715 66.0338" stroke="#CCCCCC" stroke-width="0.308211" stroke-linecap="round" stroke-linejoin="round"/>
<path d="M144.18 87.5229L164.8 81.7935" stroke="#CCCCCC" stroke-width="0.308211" stroke-linecap="round" stroke-linejoin="round"/>
<path d="M145.284 84.56L134.429 66.6612" stroke="#CCCCCC" stroke-width="0.308211" stroke-linecap="round" stroke-linejoin="round"/>
<path d="M138.859 97.6818L157.128 97.2131" stroke="#CCCCCC" stroke-width="0.308211" stroke-linecap="round" stroke-linejoin="round"/>
<path d="M141.043 93.3734L130.635 81.9145" stroke="#CCCCCC" stroke-width="0.308211" stroke-linecap="round" stroke-linejoin="round"/>
<path d="M134.807 103.192L126.41 94.7869" stroke="#CCCCCC" stroke-width="0.308211" stroke-linecap="round" stroke-linejoin="round"/>
<path d="M131.202 109.844L141.739 108.763" stroke="#CCCCCC" stroke-width="0.308211" stroke-linecap="round" stroke-linejoin="round"/>
<path d="M129.199 112.323L120.287 101.658" stroke="#CCCCCC" stroke-width="0.308211" stroke-linecap="round" stroke-linejoin="round"/>
<path d="M162.162 189.965H39.1152C38.3134 189.965 37.5443 190.284 36.9773 190.851C36.4103 191.418 36.0918 192.187 36.0918 192.989V252.067C36.0868 252.467 36.1613 252.864 36.311 253.235C36.4607 253.607 36.6826 253.944 36.9639 254.229C37.2451 254.514 37.5801 254.74 37.9494 254.894C38.3187 255.049 38.715 255.128 39.1152 255.128H149.615L165.223 273.087V192.966C165.22 192.567 165.139 192.174 164.983 191.807C164.827 191.44 164.601 191.108 164.316 190.829C164.032 190.55 163.695 190.33 163.325 190.182C162.956 190.034 162.56 189.96 162.162 189.965Z" fill="#263238"/>
<path d="M120.181 223.752C120.18 222.427 120.571 221.132 121.306 220.029C122.041 218.927 123.087 218.068 124.31 217.56C125.534 217.052 126.881 216.918 128.18 217.175C129.48 217.433 130.674 218.07 131.611 219.006C132.548 219.943 133.187 221.136 133.446 222.435C133.705 223.735 133.573 225.081 133.066 226.306C132.56 227.53 131.701 228.576 130.6 229.312C129.498 230.049 128.203 230.441 126.878 230.441C125.104 230.441 123.401 229.737 122.146 228.483C120.89 227.228 120.183 225.527 120.181 223.752Z" fill="white"/>
<path d="M91.5039 223.752C91.5024 222.427 91.8941 221.131 92.6294 220.029C93.3647 218.926 94.4105 218.067 95.6345 217.559C96.8586 217.051 98.2057 216.918 99.5055 217.176C100.805 217.434 101.999 218.072 102.936 219.009C103.873 219.946 104.511 221.14 104.769 222.44C105.028 223.74 104.894 225.087 104.387 226.311C103.879 227.535 103.019 228.581 101.917 229.316C100.814 230.051 99.5185 230.443 98.1933 230.441C96.4192 230.441 94.7177 229.737 93.4632 228.482C92.2087 227.228 91.5039 225.526 91.5039 223.752Z" fill="white"/>
<path d="M62.8267 223.752C62.8267 222.429 63.219 221.136 63.954 220.036C64.6891 218.936 65.7338 218.078 66.9561 217.572C68.1785 217.066 69.5235 216.933 70.8211 217.191C72.1187 217.449 73.3106 218.086 74.2461 219.022C75.1817 219.958 75.8188 221.149 76.0769 222.447C76.335 223.745 76.2025 225.09 75.6962 226.312C75.1899 227.534 74.3325 228.579 73.2325 229.314C72.1324 230.049 70.8391 230.442 69.516 230.442C67.7419 230.442 66.0404 229.737 64.7859 228.482C63.5314 227.228 62.8267 225.526 62.8267 223.752Z" fill="white"/>
<path d="M162.162 96.9712H39.1152C38.3134 96.9712 37.5443 97.2897 36.9773 97.8567C36.4103 98.4237 36.0918 99.1928 36.0918 99.9946V180.116L51.7004 162.157H162.162C162.562 162.157 162.959 162.077 163.328 161.923C163.697 161.769 164.032 161.543 164.313 161.258C164.595 160.973 164.817 160.635 164.966 160.264C165.116 159.893 165.191 159.496 165.186 159.095V100.032C165.191 99.6322 165.116 99.235 164.966 98.8638C164.817 98.4926 164.595 98.1548 164.313 97.8701C164.032 97.5853 163.697 97.3592 163.328 97.2049C162.959 97.0506 162.562 96.9712 162.162 96.9712Z" fill="#007665" stroke="#263238" stroke-width="0.246181" stroke-miterlimit="10"/>
</svg>
